  0
SECTION
  2
HEADER
  9
$ACADVER
  1
AC1014
  9
$HANDSEED
  5
FFFF
  9
$INSUNITS
 70
     4
  9
$MEASUREMENT
 70
     1
  0
ENDSEC
  0
SECTION
  2
TABLES
  0
TABLE
  2
VPORT
  5
8
330
0
100
AcDbSymbolTable
 70
     4
  0
VPORT
  5
2E
330
8
100
AcDbSymbolTableRecord
100
AcDbViewportTableRecord
  2
*ACTIVE
 70
     0
 10
0.0
 20
0.0
 11
1.0
 21
1.0
 12
210.0
 22
148.5
 13
0.0
 23
0.0
 14
10.0
 24
10.0
 15
10.0
 25
10.0
 16
0.0
 26
0.0
 36
1.0
 17
0.0
 27
0.0
 37
0.0
 40
341.0
 41
1.24
 42
50.0
 43
0.0
 44
0.0
 50
0.0
 51
0.0
 71
     0
 72
   100
 73
     1
 74
     3
 75
     0
 76
     0
 77
     0
 78
     0
  0
ENDTAB
  0
TABLE
  2
LTYPE
  5
5
330
0
100
AcDbSymbolTable
 70
     1
  0
LTYPE
  5
14
330
5
100
AcDbSymbolTableRecord
100
AcDbLinetypeTableRecord
  2
BYBLOCK
 70
     0
  3

 72
    65
 73
     0
 40
0.0
  0
LTYPE
  5
15
330
5
100
AcDbSymbolTableRecord
100
AcDbLinetypeTableRecord
  2
BYLAYER
 70
     0
  3

 72
    65
 73
     0
 40
0.0
  0
LTYPE
  5
16
330
5
100
AcDbSymbolTableRecord
100
AcDbLinetypeTableRecord
  2
CONTINUOUS
 70
     0
  3
Solid line
 72
    65
 73
     0
 40
0.0
  0
ENDTAB
  0
TABLE
  2
LAYER
  5
2
100
AcDbSymbolTable
 70
2
  0
LAYER
  5
50
100
AcDbSymbolTableRecord
100
AcDbLayerTableRecord
  2
0
 70
0
  6
CONTINUOUS
  0
LAYER
  5
51
100
AcDbSymbolTableRecord
100
AcDbLayerTableRecord
  2
Layer_1
 70
0
  6
CONTINUOUS
  0
ENDTAB
  0
TABLE
  2
STYLE
  5
3
330
0
100
AcDbSymbolTable
 70
     1
  0
STYLE
  5
11
330
3
100
AcDbSymbolTableRecord
100
AcDbTextStyleTableRecord
  2
STANDARD
 70
     0
 40
0.0
 41
1.0
 50
0.0
 71
     0
 42
2.5
  3
txt
  4

  0
ENDTAB
  0
TABLE
  2
VIEW
  5
6
330
0
100
AcDbSymbolTable
 70
     0
  0
ENDTAB
  0
TABLE
  2
UCS
  5
7
330
0
100
AcDbSymbolTable
 70
     0
  0
ENDTAB
  0
TABLE
  2
APPID
  5
9
330
0
100
AcDbSymbolTable
 70
     2
  0
APPID
  5
12
330
9
100
AcDbSymbolTableRecord
100
AcDbRegAppTableRecord
  2
ACAD
 70
     0
  0
ENDTAB
  0
TABLE
  2
DIMSTYLE
  5
A
330
0
100
AcDbSymbolTable
 70
     1
  0
DIMSTYLE
105
27
330
A
100
AcDbSymbolTableRecord
100
AcDbDimStyleTableRecord
  2
ISO-25
 70
     0
  3

  4

  5

  6

  7

 40
1.0
 41
2.5
 42
0.625
 43
3.75
 44
1.25
 45
0.0
 46
0.0
 47
0.0
 48
0.0
140
2.5
141
2.5
142
0.0
143
0.03937007874016
144
1.0
145
0.0
146
1.0
147
0.625
 71
     0
 72
     0
 73
     0
 74
     0
 75
     0
 76
     0
 77
     1
 78
     8
170
     0
171
     3
172
     1
173
     0
174
     0
175
     0
176
     0
177
     0
178
     0
270
     2
271
     2
272
     2
273
     2
274
     3
340
11
275
     0
280
     0
281
     0
282
     0
283
     0
284
     8
285
     0
286
     0
287
     3
288
     0
  0
ENDTAB
  0
TABLE
  2
BLOCK_RECORD
  5
1
330
0
100
AcDbSymbolTable
 70
     1
  0
BLOCK_RECORD
  5
1F
330
1
100
AcDbSymbolTableRecord
100
AcDbBlockTableRecord
  2
*MODEL_SPACE
  0
BLOCK_RECORD
  5
1B
330
1
100
AcDbSymbolTableRecord
100
AcDbBlockTableRecord
  2
*PAPER_SPACE
  0
ENDTAB
  0
ENDSEC
  0
SECTION
  2
BLOCKS
  0
BLOCK
  5
20
330
1F
100
AcDbEntity
  8
0
100
AcDbBlockBegin
  2
*MODEL_SPACE
 70
     0
 10
0.0
 20
0.0
 30
0.0
  3
*MODEL_SPACE
  1

  0
ENDBLK
  5
21
330
1F
100
AcDbEntity
  8
0
100
AcDbBlockEnd
  0
BLOCK
  5
1C
330
1B
100
AcDbEntity
 67
     1
  8
0
100
AcDbBlockBegin
  2
*PAPER_SPACE
  1

  0
ENDBLK
  5
1D
330
1B
100
AcDbEntity
 67
     1
  8
0
100
AcDbBlockEnd
  0
ENDSEC
  0
SECTION
  2
ENTITIES
  0
LINE
  5
100
100
AcDbEntity
  8
Layer_1
 62
7
100
AcDbLine
 10
189.033959
 20
323.094602
 30
0.0
 11
208.137688
 21
236.866593
 31
0.0
  0
LINE
  5
101
100
AcDbEntity
  8
Layer_1
 62
7
100
AcDbLine
 10
208.137688
 20
236.866593
 30
0.0
 11
228.191499
 21
228.560041
 31
0.0
  0
LINE
  5
102
100
AcDbEntity
  8
Layer_1
 62
7
100
AcDbLine
 10
228.191499
 20
228.560041
 30
0.0
 11
189.033959
 21
323.094602
 31
0.0
  0
LINE
  5
103
100
AcDbEntity
  8
Layer_1
 62
7
100
AcDbLine
 10
189.016171
 20
323.087234
 30
0.0
 11
236.480264
 21
248.606485
 31
0.0
  0
LINE
  5
104
100
AcDbEntity
  8
Layer_1
 62
7
100
AcDbLine
 10
236.480264
 20
248.606485
 30
0.0
 11
228.173711
 21
228.552673
 31
0.0
  0
LINE
  5
105
100
AcDbEntity
  8
Layer_1
 62
7
100
AcDbLine
 10
228.173711
 20
228.552673
 30
0.0
 11
189.016171
 21
323.087234
 31
0.0
  0
LINE
  5
106
100
AcDbEntity
  8
Layer_1
 62
7
100
AcDbLine
 10
267.550566
 20
133.488644
 30
0.0
 11
248.446845
 21
219.716635
 31
0.0
  0
LINE
  5
107
100
AcDbEntity
  8
Layer_1
 62
7
100
AcDbLine
 10
248.446845
 20
219.716635
 30
0.0
 11
228.393034
 21
228.023186
 31
0.0
  0
LINE
  5
108
100
AcDbEntity
  8
Layer_1
 62
7
100
AcDbLine
 10
228.393034
 20
228.023186
 30
0.0
 11
267.550566
 21
133.488644
 31
0.0
  0
LINE
  5
109
100
AcDbEntity
  8
Layer_1
 62
7
100
AcDbLine
 10
267.568353
 20
133.496012
 30
0.0
 11
220.104269
 21
207.976742
 31
0.0
  0
LINE
  5
10a
100
AcDbEntity
  8
Layer_1
 62
7
100
AcDbLine
 10
220.104269
 20
207.976742
 30
0.0
 11
228.410820
 21
228.030554
 31
0.0
  0
LINE
  5
10b
100
AcDbEntity
  8
Layer_1
 62
7
100
AcDbLine
 10
228.410820
 20
228.030554
 30
0.0
 11
267.568353
 21
133.496012
 31
0.0
  0
LINE
  5
10c
100
AcDbEntity
  8
Layer_1
 62
7
100
AcDbLine
 10
323.095259
 20
267.549931
 30
0.0
 11
236.867250
 21
248.446202
 31
0.0
  0
LINE
  5
10d
100
AcDbEntity
  8
Layer_1
 62
7
100
AcDbLine
 10
236.867250
 20
248.446202
 30
0.0
 11
228.560698
 21
228.392391
 31
0.0
  0
LINE
  5
10e
100
AcDbEntity
  8
Layer_1
 62
7
100
AcDbLine
 10
228.560698
 20
228.392391
 30
0.0
 11
323.095259
 21
267.549931
 31
0.0
  0
LINE
  5
10f
100
AcDbEntity
  8
Layer_1
 62
7
100
AcDbLine
 10
323.087897
 20
267.567704
 30
0.0
 11
248.607148
 21
220.103612
 31
0.0
  0
LINE
  5
110
100
AcDbEntity
  8
Layer_1
 62
7
100
AcDbLine
 10
248.607148
 20
220.103612
 30
0.0
 11
228.553336
 21
228.410164
 31
0.0
  0
LINE
  5
111
100
AcDbEntity
  8
Layer_1
 62
7
100
AcDbLine
 10
228.553336
 20
228.410164
 30
0.0
 11
323.087897
 21
267.567704
 31
0.0
  0
LINE
  5
112
100
AcDbEntity
  8
Layer_1
 62
7
100
AcDbLine
 10
133.489288
 20
189.033302
 30
0.0
 11
219.717297
 21
208.137031
 31
0.0
  0
LINE
  5
113
100
AcDbEntity
  8
Layer_1
 62
7
100
AcDbLine
 10
219.717297
 20
208.137031
 30
0.0
 11
228.023848
 21
228.190842
 31
0.0
  0
LINE
  5
114
100
AcDbEntity
  8
Layer_1
 62
7
100
AcDbLine
 10
228.023848
 20
228.190842
 30
0.0
 11
133.489288
 21
189.033302
 31
0.0
  0
LINE
  5
115
100
AcDbEntity
  8
Layer_1
 62
7
100
AcDbLine
 10
133.496649
 20
189.015530
 30
0.0
 11
207.977399
 21
236.479621
 31
0.0
  0
LINE
  5
116
100
AcDbEntity
  8
Layer_1
 62
7
100
AcDbLine
 10
207.977399
 20
236.479621
 30
0.0
 11
228.031210
 21
228.173070
 31
0.0
  0
LINE
  5
117
100
AcDbEntity
  8
Layer_1
 62
7
100
AcDbLine
 10
228.031210
 20
228.173070
 30
0.0
 11
133.496649
 21
189.015530
 31
0.0
  0
LINE
  5
118
100
AcDbEntity
  8
Layer_1
 62
7
100
AcDbLine
 10
133.495437
 20
267.567686
 30
0.0
 11
207.976186
 21
220.103594
 31
0.0
  0
LINE
  5
119
100
AcDbEntity
  8
Layer_1
 62
7
100
AcDbLine
 10
207.976186
 20
220.103594
 30
0.0
 11
228.029998
 21
228.410146
 31
0.0
  0
LINE
  5
11a
100
AcDbEntity
  8
Layer_1
 62
7
100
AcDbLine
 10
228.029998
 20
228.410146
 30
0.0
 11
133.495437
 21
267.567686
 31
0.0
  0
LINE
  5
11b
100
AcDbEntity
  8
Layer_1
 62
7
100
AcDbLine
 10
133.488069
 20
267.549898
 30
0.0
 11
219.716079
 21
248.446170
 31
0.0
  0
LINE
  5
11c
100
AcDbEntity
  8
Layer_1
 62
7
100
AcDbLine
 10
219.716079
 20
248.446170
 30
0.0
 11
228.022630
 21
228.392357
 31
0.0
  0
LINE
  5
11d
100
AcDbEntity
  8
Layer_1
 62
7
100
AcDbLine
 10
228.022630
 20
228.392357
 30
0.0
 11
133.488069
 21
267.549898
 31
0.0
  0
LINE
  5
11e
100
AcDbEntity
  8
Layer_1
 62
7
100
AcDbLine
 10
323.086660
 20
189.015505
 30
0.0
 11
248.605929
 21
236.479589
 31
0.0
  0
LINE
  5
11f
100
AcDbEntity
  8
Layer_1
 62
7
100
AcDbLine
 10
248.605929
 20
236.479589
 30
0.0
 11
228.552118
 21
228.173038
 31
0.0
  0
LINE
  5
120
100
AcDbEntity
  8
Layer_1
 62
7
100
AcDbLine
 10
228.552118
 20
228.173038
 30
0.0
 11
323.086660
 21
189.015505
 31
0.0
  0
LINE
  5
121
100
AcDbEntity
  8
Layer_1
 62
7
100
AcDbLine
 10
323.094028
 20
189.033292
 30
0.0
 11
236.866037
 21
208.137013
 31
0.0
  0
LINE
  5
122
100
AcDbEntity
  8
Layer_1
 62
7
100
AcDbLine
 10
236.866037
 20
208.137013
 30
0.0
 11
228.559486
 21
228.190824
 31
0.0
  0
LINE
  5
123
100
AcDbEntity
  8
Layer_1
 62
7
100
AcDbLine
 10
228.559486
 20
228.190824
 30
0.0
 11
323.094028
 21
189.033292
 31
0.0
  0
LINE
  5
124
100
AcDbEntity
  8
Layer_1
 62
7
100
AcDbLine
 10
267.567148
 20
323.087223
 30
0.0
 11
220.103056
 21
248.606473
 31
0.0
  0
LINE
  5
125
100
AcDbEntity
  8
Layer_1
 62
7
100
AcDbLine
 10
220.103056
 20
248.606473
 30
0.0
 11
228.409608
 21
228.552662
 31
0.0
  0
LINE
  5
126
100
AcDbEntity
  8
Layer_1
 62
7
100
AcDbLine
 10
228.409608
 20
228.552662
 30
0.0
 11
267.567148
 21
323.087223
 31
0.0
  0
LINE
  5
127
100
AcDbEntity
  8
Layer_1
 62
7
100
AcDbLine
 10
267.549375
 20
323.094584
 30
0.0
 11
248.445646
 21
236.866575
 31
0.0
  0
LINE
  5
128
100
AcDbEntity
  8
Layer_1
 62
7
100
AcDbLine
 10
248.445646
 20
236.866575
 30
0.0
 11
228.391835
 21
228.560023
 31
0.0
  0
LINE
  5
129
100
AcDbEntity
  8
Layer_1
 62
7
100
AcDbLine
 10
228.391835
 20
228.560023
 30
0.0
 11
267.549375
 21
323.094584
 31
0.0
  0
LINE
  5
12a
100
AcDbEntity
  8
Layer_1
 62
7
100
AcDbLine
 10
189.014974
 20
133.495975
 30
0.0
 11
236.479065
 21
207.976724
 31
0.0
  0
LINE
  5
12b
100
AcDbEntity
  8
Layer_1
 62
7
100
AcDbLine
 10
236.479065
 20
207.976724
 30
0.0
 11
228.172514
 21
228.030535
 31
0.0
  0
LINE
  5
12c
100
AcDbEntity
  8
Layer_1
 62
7
100
AcDbLine
 10
228.172514
 20
228.030535
 30
0.0
 11
189.014974
 21
133.495975
 31
0.0
  0
LINE
  5
12d
100
AcDbEntity
  8
Layer_1
 62
7
100
AcDbLine
 10
189.032746
 20
133.488613
 30
0.0
 11
208.136475
 21
219.716622
 31
0.0
  0
LINE
  5
12e
100
AcDbEntity
  8
Layer_1
 62
7
100
AcDbLine
 10
208.136475
 20
219.716622
 30
0.0
 11
228.190286
 21
228.023174
 31
0.0
  0
LINE
  5
12f
100
AcDbEntity
  8
Layer_1
 62
7
100
AcDbLine
 10
228.190286
 20
228.023174
 30
0.0
 11
189.032746
 21
133.488613
 31
0.0
  0
SPLINE
  5
130
100
AcDbEntity
  8
Layer_1
 62
7
100
AcDbSpline
 70
8
 71
3
 72
8
 73
4
 74
0
 40
0
 40
0
 40
0
 40
0
 40
1
 40
1
 40
1
 40
1
 10
228.313315
 20
414.215382
 30
0.0
 10
125.982414
 20
414.215143
 30
0.0
 10
43.026889
 20
331.259617
 30
0.0
 10
43.026649
 20
228.928716
 30
0.0
  0
SPLINE
  5
131
100
AcDbEntity
  8
Layer_1
 62
7
100
AcDbSpline
 70
8
 71
3
 72
8
 73
4
 74
0
 40
0
 40
0
 40
0
 40
0
 40
1
 40
1
 40
1
 40
1
 10
43.026649
 20
228.928716
 30
0.0
 10
43.026888
 20
126.597815
 30
0.0
 10
125.982414
 20
43.642289
 30
0.0
 10
228.313315
 20
43.642049
 30
0.0
  0
SPLINE
  5
132
100
AcDbEntity
  8
Layer_1
 62
7
100
AcDbSpline
 70
8
 71
3
 72
8
 73
4
 74
0
 40
0
 40
0
 40
0
 40
0
 40
1
 40
1
 40
1
 40
1
 10
228.313315
 20
43.642049
 30
0.0
 10
330.644217
 20
43.642288
 30
0.0
 10
413.599743
 20
126.597815
 30
0.0
 10
413.599982
 20
228.928716
 30
0.0
  0
SPLINE
  5
133
100
AcDbEntity
  8
Layer_1
 62
7
100
AcDbSpline
 70
8
 71
3
 72
8
 73
4
 74
0
 40
0
 40
0
 40
0
 40
0
 40
1
 40
1
 40
1
 40
1
 10
413.599982
 20
228.928716
 30
0.0
 10
413.599743
 20
331.259617
 30
0.0
 10
330.644216
 20
414.215143
 30
0.0
 10
228.313315
 20
414.215382
 30
0.0
  0
LINE
  5
134
100
AcDbEntity
  8
Layer_1
 62
7
100
AcDbLine
 10
228.313315
 20
414.215382
 30
0.0
 11
228.313315
 21
414.215382
 31
0.0
  0
SPLINE
  5
135
100
AcDbEntity
  8
Layer_1
 62
7
100
AcDbSpline
 70
8
 71
3
 72
8
 73
4
 74
0
 40
0
 40
0
 40
0
 40
0
 40
1
 40
1
 40
1
 40
1
 10
228.313315
 20
381.959827
 30
0.0
 10
268.899689
 20
381.959827
 30
0.0
 10
307.823751
 20
365.836953
 30
0.0
 10
336.522651
 20
337.138052
 30
0.0
  0
SPLINE
  5
136
100
AcDbEntity
  8
Layer_1
 62
7
100
AcDbSpline
 70
8
 71
3
 72
8
 73
4
 74
0
 40
0
 40
0
 40
0
 40
0
 40
1
 40
1
 40
1
 40
1
 10
336.522651
 20
337.138052
 30
0.0
 10
365.221551
 20
308.439152
 30
0.0
 10
381.344426
 20
269.515090
 30
0.0
 10
381.344426
 20
228.928716
 30
0.0
  0
SPLINE
  5
137
100
AcDbEntity
  8
Layer_1
 62
7
100
AcDbSpline
 70
8
 71
3
 72
8
 73
4
 74
0
 40
0
 40
0
 40
0
 40
0
 40
1
 40
1
 40
1
 40
1
 10
381.344426
 20
228.928716
 30
0.0
 10
381.344426
 20
188.342342
 30
0.0
 10
365.221551
 20
149.418280
 30
0.0
 10
336.522651
 20
120.719380
 30
0.0
  0
SPLINE
  5
138
100
AcDbEntity
  8
Layer_1
 62
7
100
AcDbSpline
 70
8
 71
3
 72
8
 73
4
 74
0
 40
0
 40
0
 40
0
 40
0
 40
1
 40
1
 40
1
 40
1
 10
336.522651
 20
120.719380
 30
0.0
 10
307.823751
 20
92.020480
 30
0.0
 10
268.899689
 20
75.897606
 30
0.0
 10
228.313315
 20
75.897606
 30
0.0
  0
SPLINE
  5
139
100
AcDbEntity
  8
Layer_1
 62
7
100
AcDbSpline
 70
8
 71
3
 72
8
 73
4
 74
0
 40
0
 40
0
 40
0
 40
0
 40
1
 40
1
 40
1
 40
1
 10
228.313315
 20
75.897606
 30
0.0
 10
187.726941
 20
75.897606
 30
0.0
 10
148.802879
 20
92.020480
 30
0.0
 10
120.103979
 20
120.719380
 30
0.0
  0
SPLINE
  5
13a
100
AcDbEntity
  8
Layer_1
 62
7
100
AcDbSpline
 70
8
 71
3
 72
8
 73
4
 74
0
 40
0
 40
0
 40
0
 40
0
 40
1
 40
1
 40
1
 40
1
 10
120.103979
 20
120.719380
 30
0.0
 10
91.405079
 20
149.418280
 30
0.0
 10
75.282204
 20
188.342342
 30
0.0
 10
75.282204
 20
228.928716
 30
0.0
  0
SPLINE
  5
13b
100
AcDbEntity
  8
Layer_1
 62
7
100
AcDbSpline
 70
8
 71
3
 72
8
 73
4
 74
0
 40
0
 40
0
 40
0
 40
0
 40
1
 40
1
 40
1
 40
1
 10
75.282204
 20
228.928716
 30
0.0
 10
75.282204
 20
269.515090
 30
0.0
 10
91.405079
 20
308.439152
 30
0.0
 10
120.103979
 20
337.138052
 30
0.0
  0
SPLINE
  5
13c
100
AcDbEntity
  8
Layer_1
 62
7
100
AcDbSpline
 70
8
 71
3
 72
8
 73
4
 74
0
 40
0
 40
0
 40
0
 40
0
 40
1
 40
1
 40
1
 40
1
 10
120.103979
 20
337.138052
 30
0.0
 10
148.802879
 20
365.836953
 30
0.0
 10
187.726941
 20
381.959827
 30
0.0
 10
228.313315
 20
381.959827
 30
0.0
  0
LINE
  5
13d
100
AcDbEntity
  8
Layer_1
 62
7
100
AcDbLine
 10
228.313315
 20
381.959827
 30
0.0
 11
228.313315
 21
381.959827
 31
0.0
  0
LINE
  5
13e
100
AcDbEntity
  8
Layer_1
 62
7
100
AcDbLine
 10
325.087061
 20
325.068412
 30
0.0
 11
228.571283
 21
257.507373
 31
0.0
  0
LINE
  5
13f
100
AcDbEntity
  8
Layer_1
 62
7
100
AcDbLine
 10
228.571283
 20
257.507373
 30
0.0
 11
228.571283
 21
228.552635
 31
0.0
  0
LINE
  5
140
100
AcDbEntity
  8
Layer_1
 62
7
100
AcDbLine
 10
228.571283
 20
228.552635
 30
0.0
 11
325.087061
 21
325.068412
 31
0.0
  0
LINE
  5
141
100
AcDbEntity
  8
Layer_1
 62
7
100
AcDbLine
 10
325.068902
 20
325.086571
 30
0.0
 11
257.507851
 21
228.570840
 31
0.0
  0
LINE
  5
142
100
AcDbEntity
  8
Layer_1
 62
7
100
AcDbLine
 10
257.507851
 20
228.570840
 30
0.0
 11
228.553124
 21
228.570840
 31
0.0
  0
LINE
  5
143
100
AcDbEntity
  8
Layer_1
 62
7
100
AcDbLine
 10
228.553124
 20
228.570840
 30
0.0
 11
325.068902
 21
325.086571
 31
0.0
  0
LINE
  5
144
100
AcDbEntity
  8
Layer_1
 62
7
100
AcDbLine
 10
131.496778
 20
131.514413
 30
0.0
 11
228.012539
 21
199.075430
 31
0.0
  0
LINE
  5
145
100
AcDbEntity
  8
Layer_1
 62
7
100
AcDbLine
 10
228.012539
 20
199.075430
 30
0.0
 11
228.012539
 21
228.030168
 31
0.0
  0
LINE
  5
146
100
AcDbEntity
  8
Layer_1
 62
7
100
AcDbLine
 10
228.012539
 20
228.030168
 30
0.0
 11
131.496778
 21
131.514413
 31
0.0
  0
LINE
  5
147
100
AcDbEntity
  8
Layer_1
 62
7
100
AcDbLine
 10
131.514937
 20
131.496323
 30
0.0
 11
199.075969
 21
228.012077
 31
0.0
  0
LINE
  5
148
100
AcDbEntity
  8
Layer_1
 62
7
100
AcDbLine
 10
199.075969
 20
228.012077
 30
0.0
 11
228.030698
 21
228.012077
 31
0.0
  0
LINE
  5
149
100
AcDbEntity
  8
Layer_1
 62
7
100
AcDbLine
 10
228.030698
 20
228.012077
 30
0.0
 11
131.514937
 21
131.496323
 31
0.0
  0
LINE
  5
14a
100
AcDbEntity
  8
Layer_1
 62
7
100
AcDbLine
 10
325.068913
 20
131.496209
 30
0.0
 11
257.507862
 21
228.012077
 31
0.0
  0
LINE
  5
14b
100
AcDbEntity
  8
Layer_1
 62
7
100
AcDbLine
 10
257.507862
 20
228.012077
 30
0.0
 11
228.553136
 21
228.012077
 31
0.0
  0
LINE
  5
14c
100
AcDbEntity
  8
Layer_1
 62
7
100
AcDbLine
 10
228.553136
 20
228.012077
 30
0.0
 11
325.068913
 21
131.496209
 31
0.0
  0
LINE
  5
14d
100
AcDbEntity
  8
Layer_1
 62
7
100
AcDbLine
 10
325.087061
 20
131.514413
 30
0.0
 11
228.571283
 21
199.075430
 31
0.0
  0
LINE
  5
14e
100
AcDbEntity
  8
Layer_1
 62
7
100
AcDbLine
 10
228.571283
 20
199.075430
 30
0.0
 11
228.571283
 21
228.030168
 31
0.0
  0
LINE
  5
14f
100
AcDbEntity
  8
Layer_1
 62
7
100
AcDbLine
 10
228.571283
 20
228.030168
 30
0.0
 11
325.087061
 21
131.514413
 31
0.0
  0
LINE
  5
150
100
AcDbEntity
  8
Layer_1
 62
7
100
AcDbLine
 10
131.514917
 20
325.086549
 30
0.0
 11
199.075969
 21
228.570726
 31
0.0
  0
LINE
  5
151
100
AcDbEntity
  8
Layer_1
 62
7
100
AcDbLine
 10
199.075969
 20
228.570726
 30
0.0
 11
228.030698
 21
228.570726
 31
0.0
  0
LINE
  5
152
100
AcDbEntity
  8
Layer_1
 62
7
100
AcDbLine
 10
228.030698
 20
228.570726
 30
0.0
 11
131.514917
 21
325.086549
 31
0.0
  0
LINE
  5
153
100
AcDbEntity
  8
Layer_1
 62
7
100
AcDbLine
 10
131.496772
 20
325.068412
 30
0.0
 11
228.012553
 21
257.507373
 31
0.0
  0
LINE
  5
154
100
AcDbEntity
  8
Layer_1
 62
7
100
AcDbLine
 10
228.012553
 20
257.507373
 30
0.0
 11
228.012553
 21
228.552635
 31
0.0
  0
LINE
  5
155
100
AcDbEntity
  8
Layer_1
 62
7
100
AcDbLine
 10
228.012553
 20
228.552635
 30
0.0
 11
131.496772
 21
325.068412
 31
0.0
  0
LINE
  5
156
100
AcDbEntity
  8
Layer_1
 62
7
100
AcDbLine
 10
228.313315
 20
456.484271
 30
0.0
 11
194.179982
 21
263.062004
 31
0.0
  0
LINE
  5
157
100
AcDbEntity
  8
Layer_1
 62
7
100
AcDbLine
 10
194.179982
 20
263.062004
 30
0.0
 11
228.313315
 21
228.928671
 31
0.0
  0
LINE
  5
158
100
AcDbEntity
  8
Layer_1
 62
7
100
AcDbLine
 10
228.313315
 20
228.928671
 30
0.0
 11
228.313315
 21
456.484271
 31
0.0
  0
LINE
  5
159
100
AcDbEntity
  8
Layer_1
 62
7
100
AcDbLine
 10
228.270497
 20
456.484271
 30
0.0
 11
262.403834
 21
263.062004
 31
0.0
  0
LINE
  5
15a
100
AcDbEntity
  8
Layer_1
 62
7
100
AcDbLine
 10
262.403834
 20
263.062004
 30
0.0
 11
228.270497
 21
228.928671
 31
0.0
  0
LINE
  5
15b
100
AcDbEntity
  8
Layer_1
 62
7
100
AcDbLine
 10
228.270497
 20
228.928671
 30
0.0
 11
228.270497
 21
456.484271
 31
0.0
  0
LINE
  5
15c
100
AcDbEntity
  8
Layer_1
 62
7
100
AcDbLine
 10
228.270500
 20
0.098577
 30
0.0
 11
262.403834
 21
193.520799
 31
0.0
  0
LINE
  5
15d
100
AcDbEntity
  8
Layer_1
 62
7
100
AcDbLine
 10
262.403834
 20
193.520799
 30
0.0
 11
228.270500
 21
227.654132
 31
0.0
  0
LINE
  5
15e
100
AcDbEntity
  8
Layer_1
 62
7
100
AcDbLine
 10
228.270500
 20
227.654132
 30
0.0
 11
228.270500
 21
0.098577
 31
0.0
  0
LINE
  5
15f
100
AcDbEntity
  8
Layer_1
 62
7
100
AcDbLine
 10
228.313315
 20
0.098577
 30
0.0
 11
194.179982
 21
193.520799
 31
0.0
  0
LINE
  5
160
100
AcDbEntity
  8
Layer_1
 62
7
100
AcDbLine
 10
194.179982
 20
193.520799
 30
0.0
 11
228.313315
 21
227.654132
 31
0.0
  0
LINE
  5
161
100
AcDbEntity
  8
Layer_1
 62
7
100
AcDbLine
 10
228.313315
 20
227.654132
 30
0.0
 11
228.313315
 21
0.098577
 31
0.0
  0
LINE
  5
162
100
AcDbEntity
  8
Layer_1
 62
7
100
AcDbLine
 10
456.484795
 20
228.270011
 30
0.0
 11
263.062527
 21
262.403344
 31
0.0
  0
LINE
  5
163
100
AcDbEntity
  8
Layer_1
 62
7
100
AcDbLine
 10
263.062527
 20
262.403344
 30
0.0
 11
228.929194
 21
228.270011
 31
0.0
  0
LINE
  5
164
100
AcDbEntity
  8
Layer_1
 62
7
100
AcDbLine
 10
228.929194
 20
228.270011
 30
0.0
 11
456.484795
 21
228.270011
 31
0.0
  0
LINE
  5
165
100
AcDbEntity
  8
Layer_1
 62
7
100
AcDbLine
 10
456.484795
 20
228.312792
 30
0.0
 11
263.062527
 21
194.179458
 31
0.0
  0
LINE
  5
166
100
AcDbEntity
  8
Layer_1
 62
7
100
AcDbLine
 10
263.062527
 20
194.179458
 30
0.0
 11
228.929194
 21
228.312792
 31
0.0
  0
LINE
  5
167
100
AcDbEntity
  8
Layer_1
 62
7
100
AcDbLine
 10
228.929194
 20
228.312792
 30
0.0
 11
456.484795
 21
228.312792
 31
0.0
  0
LINE
  5
168
100
AcDbEntity
  8
Layer_1
 62
7
100
AcDbLine
 10
0.099055
 20
228.312792
 30
0.0
 11
193.521322
 21
194.179458
 31
0.0
  0
LINE
  5
169
100
AcDbEntity
  8
Layer_1
 62
7
100
AcDbLine
 10
193.521322
 20
194.179458
 30
0.0
 11
227.654655
 21
228.312792
 31
0.0
  0
LINE
  5
16a
100
AcDbEntity
  8
Layer_1
 62
7
100
AcDbLine
 10
227.654655
 20
228.312792
 30
0.0
 11
0.099055
 21
228.312792
 31
0.0
  0
LINE
  5
16b
100
AcDbEntity
  8
Layer_1
 62
7
100
AcDbLine
 10
0.099055
 20
228.270011
 30
0.0
 11
193.521322
 21
262.403344
 31
0.0
  0
LINE
  5
16c
100
AcDbEntity
  8
Layer_1
 62
7
100
AcDbLine
 10
193.521322
 20
262.403344
 30
0.0
 11
227.654655
 21
228.270011
 31
0.0
  0
LINE
  5
16d
100
AcDbEntity
  8
Layer_1
 62
7
100
AcDbLine
 10
227.654655
 20
228.270011
 30
0.0
 11
0.099055
 21
228.270011
 31
0.0
  0
ENDSEC
  0
SECTION
  2
OBJECTS
  0
DICTIONARY
  5
C
330
0
100
AcDbDictionary
  3
ACAD_GROUP
350
D
  3
ACAD_MLINESTYLE
350
17
  0
DICTIONARY
  5
D
330
C
100
AcDbDictionary
  0
DICTIONARY
  5
1A
330
C
100
AcDbDictionary
  0
DICTIONARY
  5
17
330
C
100
AcDbDictionary
  3
STANDARD
350
18
  0
DICTIONARY
  5
19
330
C
100
AcDbDictionary
  0
ENDSEC
  0
EOF
