999
"DXF R12 Output" (www.mydxf.blogspot.com)
 0 
SECTION
 2 
HEADER
 9 
$ACADVER
 1 
AC1009
 9 
$EXTMIN
 10 
 0 
 20 
 0 
 9 
$EXTMAX
 10 
 8.5 
 20 
 11 
 0 
ENDSEC
 0 
SECTION
 2 
ENTITIES
0
LINE
8
Layer 1
10
0.008774
20
-55.779800
11
-0.001785
21
-55.747900
0
LINE
8
Layer 1
10
-0.001785
20
-55.747900
11
-0.925286
21
-50.497490
0
LINE
8
Layer 1
10
-0.925286
20
-50.497490
11
-1.848786
21
-45.247090
0
LINE
8
Layer 1
10
-1.848786
20
-45.247090
11
-1.862933
21
-45.230790
0
LINE
8
Layer 1
10
-1.862933
20
-45.230790
11
-1.877080
21
-45.214490
0
LINE
8
Layer 1
10
-1.877080
20
-45.214490
11
-2.342151
21
-45.186890
0
LINE
8
Layer 1
10
-2.342151
20
-45.186890
11
-2.807223
21
-45.159190
0
LINE
8
Layer 1
10
-2.807223
20
-45.159190
11
-3.431038
21
-45.110790
0
LINE
8
Layer 1
10
-3.431038
20
-45.110790
11
-4.054854
21
-45.062390
0
LINE
8
Layer 1
10
-4.054854
20
-45.062390
11
-4.532520
21
-45.013090
0
LINE
8
Layer 1
10
-4.532520
20
-45.013090
11
-5.010187
21
-44.963690
0
LINE
8
Layer 1
10
-5.010187
20
-44.963690
11
-5.585405
21
-44.890590
0
LINE
8
Layer 1
10
-5.585405
20
-44.890590
11
-6.160624
21
-44.817490
0
LINE
8
Layer 1
10
-6.160624
20
-44.817490
11
-6.650171
21
-44.743190
0
LINE
8
Layer 1
10
-6.650171
20
-44.743190
11
-7.139719
21
-44.668890
0
LINE
8
Layer 1
10
-7.139719
20
-44.668890
11
-7.629266
21
-44.583890
0
LINE
8
Layer 1
10
-7.629266
20
-44.583890
11
-8.118814
21
-44.498890
0
LINE
8
Layer 1
10
-8.118814
20
-44.498890
11
-8.620602
21
-44.400490
0
LINE
8
Layer 1
10
-8.620602
20
-44.400490
11
-9.122388
21
-44.301990
0
LINE
8
Layer 1
10
-9.122388
20
-44.301990
11
-9.832232
21
-44.144540
0
LINE
8
Layer 1
10
-9.832232
20
-44.144540
11
-10.542077
21
-43.987060
0
LINE
8
Layer 1
10
-10.542077
20
-43.987060
11
-11.251922
21
-43.801920
0
LINE
8
Layer 1
10
-11.251922
20
-43.801920
11
-11.961766
21
-43.616770
0
LINE
8
Layer 1
10
-11.961766
20
-43.616770
11
-12.512508
21
-43.457620
0
LINE
8
Layer 1
10
-12.512508
20
-43.457620
11
-13.063250
21
-43.298470
0
LINE
8
Layer 1
10
-13.063250
20
-43.298470
11
-13.479366
21
-43.166120
0
LINE
8
Layer 1
10
-13.479366
20
-43.166120
11
-13.895481
21
-43.033770
0
LINE
8
Layer 1
10
-13.895481
20
-43.033770
11
-14.433984
21
-42.852420
0
LINE
8
Layer 1
10
-14.433984
20
-42.852420
11
-14.972487
21
-42.671080
0
LINE
8
Layer 1
10
-14.972487
20
-42.671080
11
-15.419178
21
-42.508360
0
LINE
8
Layer 1
10
-15.419178
20
-42.508360
11
-15.865868
21
-42.345620
0
LINE
8
Layer 1
10
-15.865868
20
-42.345620
11
-16.306052
21
-42.175300
0
LINE
8
Layer 1
10
-16.306052
20
-42.175300
11
-16.746240
21
-42.004960
0
LINE
8
Layer 1
10
-16.746240
20
-42.004960
11
-17.217857
21
-41.810640
0
LINE
8
Layer 1
10
-17.217857
20
-41.810640
11
-17.689478
21
-41.616320
0
LINE
8
Layer 1
10
-17.689478
20
-41.616320
11
-18.109628
21
-41.432160
0
LINE
8
Layer 1
10
-18.109628
20
-41.432160
11
-18.529776
21
-41.248030
0
LINE
8
Layer 1
10
-18.529776
20
-41.248030
11
-18.966337
21
-41.047530
0
LINE
8
Layer 1
10
-18.966337
20
-41.047530
11
-19.402896
21
-40.847030
0
LINE
8
Layer 1
10
-19.402896
20
-40.847030
11
-20.137218
21
-40.480300
0
LINE
8
Layer 1
10
-20.137218
20
-40.480300
11
-20.871541
21
-40.113570
0
LINE
8
Layer 1
10
-20.871541
20
-40.113570
11
-21.263178
21
-39.905430
0
LINE
8
Layer 1
10
-21.263178
20
-39.905430
11
-21.654817
21
-39.697320
0
LINE
8
Layer 1
10
-21.654817
20
-39.697320
11
-21.875114
21
-39.573790
0
LINE
8
Layer 1
10
-21.875114
20
-39.573790
11
-22.095411
21
-39.450270
0
LINE
8
Layer 1
10
-22.095411
20
-39.450270
11
-22.376901
21
-39.291460
0
LINE
8
Layer 1
10
-22.376901
20
-39.291460
11
-22.658391
21
-39.132640
0
LINE
8
Layer 1
10
-22.658391
20
-39.132640
11
-23.111222
21
-38.863020
0
LINE
8
Layer 1
10
-23.111222
20
-38.863020
11
-23.564054
21
-38.593400
0
LINE
8
Layer 1
10
-23.564054
20
-38.593400
11
-23.918977
21
-38.372700
0
LINE
8
Layer 1
10
-23.918977
20
-38.372700
11
-24.273900
21
-38.152030
0
LINE
8
Layer 1
10
-24.273900
20
-38.152030
11
-24.690015
21
-37.880950
0
LINE
8
Layer 1
10
-24.690015
20
-37.880950
11
-25.106131
21
-37.609900
0
LINE
8
Layer 1
10
-25.106131
20
-37.609900
11
-25.571201
21
-37.293660
0
LINE
8
Layer 1
10
-25.571201
20
-37.293660
11
-26.036272
21
-36.977400
0
LINE
8
Layer 1
10
-26.036272
20
-36.977400
11
-26.635968
21
-36.541580
0
LINE
8
Layer 1
10
-26.635968
20
-36.541580
11
-27.235665
21
-36.105750
0
LINE
8
Layer 1
10
-27.235665
20
-36.105750
11
-27.712974
21
-35.734400
0
LINE
8
Layer 1
10
-27.712974
20
-35.734400
11
-28.190283
21
-35.363040
0
LINE
8
Layer 1
10
-28.190283
20
-35.363040
11
-28.629397
21
-35.005680
0
LINE
8
Layer 1
10
-28.629397
20
-35.005680
11
-29.068510
21
-34.648320
0
LINE
8
Layer 1
10
-29.068510
20
-34.648320
11
-29.535062
21
-34.247620
0
LINE
8
Layer 1
10
-29.535062
20
-34.247620
11
-30.001610
21
-33.846920
0
LINE
8
Layer 1
10
-30.001610
20
-33.846920
11
-30.491158
21
-33.400670
0
LINE
8
Layer 1
10
-30.491158
20
-33.400670
11
-30.980707
21
-32.954400
0
LINE
8
Layer 1
10
-30.980707
20
-32.954400
11
-31.506972
21
-32.448860
0
LINE
8
Layer 1
10
-31.506972
20
-32.448860
11
-32.033236
21
-31.943320
0
LINE
8
Layer 1
10
-32.033236
20
-31.943320
11
-32.568488
21
-31.386580
0
LINE
8
Layer 1
10
-32.568488
20
-31.386580
11
-33.103741
21
-30.829840
0
LINE
8
Layer 1
10
-33.103741
20
-30.829840
11
-33.451472
21
-30.450440
0
LINE
8
Layer 1
10
-33.451472
20
-30.450440
11
-33.799203
21
-30.071050
0
LINE
8
Layer 1
10
-33.799203
20
-30.071050
11
-34.082876
21
-29.747020
0
LINE
8
Layer 1
10
-34.082876
20
-29.747020
11
-34.366546
21
-29.423020
0
LINE
8
Layer 1
10
-34.366546
20
-29.423020
11
-34.731288
21
-28.988230
0
LINE
8
Layer 1
10
-34.731288
20
-28.988230
11
-35.096029
21
-28.553450
0
LINE
8
Layer 1
10
-35.096029
20
-28.553450
11
-35.438860
21
-28.125100
0
LINE
8
Layer 1
10
-35.438860
20
-28.125100
11
-35.781689
21
-27.696740
0
LINE
8
Layer 1
10
-35.781689
20
-27.696740
11
-36.125212
21
-27.243910
0
LINE
8
Layer 1
10
-36.125212
20
-27.243910
11
-36.468735
21
-26.791070
0
LINE
8
Layer 1
10
-36.468735
20
-26.791070
11
-36.785754
21
-26.350470
0
LINE
8
Layer 1
10
-36.785754
20
-26.350470
11
-37.102774
21
-25.909890
0
LINE
8
Layer 1
10
-37.102774
20
-25.909890
11
-37.421675
21
-25.444810
0
LINE
8
Layer 1
10
-37.421675
20
-25.444810
11
-37.740576
21
-24.979740
0
LINE
8
Layer 1
10
-37.740576
20
-24.979740
11
-38.010151
21
-24.563630
0
LINE
8
Layer 1
10
-38.010151
20
-24.563630
11
-38.279727
21
-24.147520
0
LINE
8
Layer 1
10
-38.279727
20
-24.147520
11
-38.524094
21
-23.755870
0
LINE
8
Layer 1
10
-38.524094
20
-23.755870
11
-38.768461
21
-23.364240
0
LINE
8
Layer 1
10
-38.768461
20
-23.364240
11
-38.969167
21
-23.026460
0
LINE
8
Layer 1
10
-38.969167
20
-23.026460
11
-39.169874
21
-22.688690
0
LINE
8
Layer 1
10
-39.169874
20
-22.688690
11
-39.416844
21
-22.255420
0
LINE
8
Layer 1
10
-39.416844
20
-22.255420
11
-39.663814
21
-21.822160
0
LINE
8
Layer 1
10
-39.663814
20
-21.822160
11
-39.901788
21
-21.381570
0
LINE
8
Layer 1
10
-39.901788
20
-21.381570
11
-40.139761
21
-20.940970
0
LINE
8
Layer 1
10
-40.139761
20
-20.940970
11
-40.398667
21
-20.439190
0
LINE
8
Layer 1
10
-40.398667
20
-20.439190
11
-40.657572
21
-19.937390
0
LINE
8
Layer 1
10
-40.657572
20
-19.937390
11
-40.919389
21
-19.386650
0
LINE
8
Layer 1
10
-40.919389
20
-19.386650
11
-41.181205
21
-18.835920
0
LINE
8
Layer 1
10
-41.181205
20
-18.835920
11
-41.383870
21
-18.383090
0
LINE
8
Layer 1
10
-41.383870
20
-18.383090
11
-41.586537
21
-17.930250
0
LINE
8
Layer 1
10
-41.586537
20
-17.930250
11
-41.738314
21
-17.575330
0
LINE
8
Layer 1
10
-41.738314
20
-17.575330
11
-41.890090
21
-17.220420
0
LINE
8
Layer 1
10
-41.890090
20
-17.220420
11
-42.130150
21
-16.620710
0
LINE
8
Layer 1
10
-42.130150
20
-16.620710
11
-42.370209
21
-16.021020
0
LINE
8
Layer 1
10
-42.370209
20
-16.021020
11
-42.530078
21
-15.591120
0
LINE
8
Layer 1
10
-42.530078
20
-15.591120
11
-42.689945
21
-15.161220
0
LINE
8
Layer 1
10
-42.689945
20
-15.161220
11
-42.872711
21
-14.636500
0
LINE
8
Layer 1
10
-42.872711
20
-14.636500
11
-43.055475
21
-14.111780
0
LINE
8
Layer 1
10
-43.055475
20
-14.111780
11
-43.252747
21
-13.487610
0
LINE
8
Layer 1
10
-43.252747
20
-13.487610
11
-43.450019
21
-12.863420
0
LINE
8
Layer 1
10
-43.450019
20
-12.863420
11
-43.608080
21
-12.312690
0
LINE
8
Layer 1
10
-43.608080
20
-12.312690
11
-43.766141
21
-11.761950
0
LINE
8
Layer 1
10
-43.766141
20
-11.761950
11
-43.888126
21
-11.296870
0
LINE
8
Layer 1
10
-43.888126
20
-11.296870
11
-44.010111
21
-10.831810
0
LINE
8
Layer 1
10
-44.010111
20
-10.831810
11
-44.135084
21
-10.310400
0
LINE
8
Layer 1
10
-44.135084
20
-10.310400
11
-44.260058
21
-9.788980
0
LINE
8
Layer 1
10
-44.260058
20
-9.788980
11
-44.356108
21
-9.343540
0
LINE
8
Layer 1
10
-44.356108
20
-9.343540
11
-44.452158
21
-8.898080
0
LINE
8
Layer 1
10
-44.452158
20
-8.898080
11
-44.538558
21
-8.457500
0
LINE
8
Layer 1
10
-44.538558
20
-8.457500
11
-44.624958
21
-8.016900
0
LINE
8
Layer 1
10
-44.624958
20
-8.016900
11
-44.723528
21
-7.441680
0
LINE
8
Layer 1
10
-44.723528
20
-7.441680
11
-44.822098
21
-6.866470
0
LINE
8
Layer 1
10
-44.822098
20
-6.866470
11
-44.895038
21
-6.376920
0
LINE
8
Layer 1
10
-44.895038
20
-6.376920
11
-44.967988
21
-5.887370
0
LINE
8
Layer 1
10
-44.967988
20
-5.887370
11
-45.040858
21
-5.299920
0
LINE
8
Layer 1
10
-45.040858
20
-5.299920
11
-45.113728
21
-4.712460
0
LINE
8
Layer 1
10
-45.113728
20
-4.712460
11
-45.175468
21
-4.063800
0
LINE
8
Layer 1
10
-45.175468
20
-4.063800
11
-45.237208
21
-3.415150
0
LINE
8
Layer 1
10
-45.237208
20
-3.415150
11
-45.275798
21
-2.827690
0
LINE
8
Layer 1
10
-45.275798
20
-2.827690
11
-45.314398
21
-2.240250
0
LINE
8
Layer 1
10
-45.314398
20
-2.240250
11
-45.331678
21
-2.045410
0
LINE
8
Layer 1
10
-45.331678
20
-2.045410
11
-45.348968
21
-1.850560
0
LINE
8
Layer 1
10
-45.348968
20
-1.850560
11
-50.562658
21
-0.930620
0
LINE
8
Layer 1
10
-50.562658
20
-0.930620
11
-55.776348
21
-0.010660
0
LINE
8
Layer 1
10
-55.776348
20
-0.010660
11
-55.776300
21
0.121860
0
LINE
8
Layer 1
10
-55.776300
20
0.121860
11
-55.776300
21
0.254360
0
LINE
8
Layer 1
10
-55.776300
20
0.254360
11
-50.562610
21
1.174330
0
LINE
8
Layer 1
10
-50.562610
20
1.174330
11
-45.348920
21
2.094320
0
LINE
8
Layer 1
10
-45.348920
20
2.094320
11
-45.331580
21
2.472710
0
LINE
8
Layer 1
10
-45.331580
20
2.472710
11
-45.314250
21
2.851100
0
LINE
8
Layer 1
10
-45.314250
20
2.851100
11
-45.275750
21
3.414070
0
LINE
8
Layer 1
10
-45.275750
20
3.414070
11
-45.237240
21
3.977050
0
LINE
8
Layer 1
10
-45.237240
20
3.977050
11
-45.175430
21
4.625700
0
LINE
8
Layer 1
10
-45.175430
20
4.625700
11
-45.113630
21
5.274350
0
LINE
8
Layer 1
10
-45.113630
20
5.274350
11
-45.029870
21
5.939410
0
LINE
8
Layer 1
10
-45.029870
20
5.939410
11
-44.946110
21
6.604450
0
LINE
8
Layer 1
10
-44.946110
20
6.604450
11
-44.883920
21
7.016410
0
LINE
8
Layer 1
10
-44.883920
20
7.016410
11
-44.821740
21
7.428370
0
LINE
8
Layer 1
10
-44.821740
20
7.428370
11
-44.723330
21
8.003580
0
LINE
8
Layer 1
10
-44.723330
20
8.003580
11
-44.624920
21
8.578800
0
LINE
8
Layer 1
10
-44.624920
20
8.578800
11
-44.538680
21
9.019390
0
LINE
8
Layer 1
10
-44.538680
20
9.019390
11
-44.452440
21
9.459990
0
LINE
8
Layer 1
10
-44.452440
20
9.459990
11
-44.317755
21
10.071920
0
LINE
8
Layer 1
10
-44.317755
20
10.071920
11
-44.183072
21
10.683860
0
LINE
8
Layer 1
10
-44.183072
20
10.683860
11
-44.023943
21
11.320280
0
LINE
8
Layer 1
10
-44.023943
20
11.320280
11
-43.864815
21
11.956680
0
LINE
8
Layer 1
10
-43.864815
20
11.956680
11
-43.729408
21
12.446230
0
LINE
8
Layer 1
10
-43.729408
20
12.446230
11
-43.594002
21
12.935780
0
LINE
8
Layer 1
10
-43.594002
20
12.935780
11
-43.411347
21
13.535480
0
LINE
8
Layer 1
10
-43.411347
20
13.535480
11
-43.228691
21
14.135170
0
LINE
8
Layer 1
10
-43.228691
20
14.135170
11
-43.023620
21
14.748310
0
LINE
8
Layer 1
10
-43.023620
20
14.748310
11
-42.818549
21
15.361450
0
LINE
8
Layer 1
10
-42.818549
20
15.361450
11
-42.593939
21
15.972180
0
LINE
8
Layer 1
10
-42.593939
20
15.972180
11
-42.369330
21
16.582910
0
LINE
8
Layer 1
10
-42.369330
20
16.582910
11
-42.093830
21
17.268280
0
LINE
8
Layer 1
10
-42.093830
20
17.268280
11
-41.818331
21
17.953660
0
LINE
8
Layer 1
10
-41.818331
20
17.953660
11
-41.607144
21
18.436090
0
LINE
8
Layer 1
10
-41.607144
20
18.436090
11
-41.395958
21
18.918530
0
LINE
8
Layer 1
10
-41.395958
20
18.918530
11
-41.174262
21
19.400520
0
LINE
8
Layer 1
10
-41.174262
20
19.400520
11
-40.952567
21
19.882530
0
LINE
8
Layer 1
10
-40.952567
20
19.882530
11
-40.577675
21
20.632550
0
LINE
8
Layer 1
10
-40.577675
20
20.632550
11
-40.202784
21
21.382560
0
LINE
8
Layer 1
10
-40.202784
20
21.382560
11
-39.939807
21
21.868710
0
LINE
8
Layer 1
10
-39.939807
20
21.868710
11
-39.676828
21
22.354860
0
LINE
8
Layer 1
10
-39.676828
20
22.354860
11
-39.389307
21
22.859020
0
LINE
8
Layer 1
10
-39.389307
20
22.859020
11
-39.101786
21
23.363150
0
LINE
8
Layer 1
10
-39.101786
20
23.363150
11
-38.814174
21
23.838420
0
LINE
8
Layer 1
10
-38.814174
20
23.838420
11
-38.526561
21
24.313680
0
LINE
8
Layer 1
10
-38.526561
20
24.313680
11
-38.268281
21
24.719610
0
LINE
8
Layer 1
10
-38.268281
20
24.719610
11
-38.010002
21
25.125520
0
LINE
8
Layer 1
10
-38.010002
20
25.125520
11
-37.716294
21
25.566110
0
LINE
8
Layer 1
10
-37.716294
20
25.566110
11
-37.422589
21
26.006720
0
LINE
8
Layer 1
10
-37.422589
20
26.006720
11
-37.078169
21
26.496250
0
LINE
8
Layer 1
10
-37.078169
20
26.496250
11
-36.733750
21
26.985800
0
LINE
8
Layer 1
10
-36.733750
20
26.985800
11
-36.265892
21
27.609990
0
LINE
8
Layer 1
10
-36.265892
20
27.609990
11
-35.798033
21
28.234150
0
LINE
8
Layer 1
10
-35.798033
20
28.234150
11
-35.434926
21
28.686980
0
LINE
8
Layer 1
10
-35.434926
20
28.686980
11
-35.071819
21
29.139820
0
LINE
8
Layer 1
10
-35.071819
20
29.139820
11
-34.764445
21
29.506980
0
LINE
8
Layer 1
10
-34.764445
20
29.506980
11
-34.457072
21
29.874150
0
LINE
8
Layer 1
10
-34.457072
20
29.874150
11
-34.114654
21
30.265780
0
LINE
8
Layer 1
10
-34.114654
20
30.265780
11
-33.772234
21
30.657420
0
LINE
8
Layer 1
10
-33.772234
20
30.657420
11
-33.369951
21
31.098020
0
LINE
8
Layer 1
10
-33.369951
20
31.098020
11
-32.967670
21
31.538610
0
LINE
8
Layer 1
10
-32.967670
20
31.538610
11
-32.010888
21
32.494450
0
LINE
8
Layer 1
10
-32.010888
20
32.494450
11
-31.054106
21
33.450290
0
LINE
8
Layer 1
10
-31.054106
20
33.450290
11
-30.636991
21
33.828470
0
LINE
8
Layer 1
10
-30.636991
20
33.828470
11
-30.219877
21
34.206650
0
LINE
8
Layer 1
10
-30.219877
20
34.206650
11
-29.841476
21
34.538190
0
LINE
8
Layer 1
10
-29.841476
20
34.538190
11
-29.463076
21
34.869750
0
LINE
8
Layer 1
10
-29.463076
20
34.869750
11
-29.083675
21
35.188840
0
LINE
8
Layer 1
10
-29.083675
20
35.188840
11
-28.704276
21
35.507940
0
LINE
8
Layer 1
10
-28.704276
20
35.507940
11
-28.215944
21
35.896130
0
LINE
8
Layer 1
10
-28.215944
20
35.896130
11
-27.727613
21
36.284320
0
LINE
8
Layer 1
10
-27.727613
20
36.284320
11
-27.234153
21
36.655800
0
LINE
8
Layer 1
10
-27.234153
20
36.655800
11
-26.740693
21
37.027260
0
LINE
8
Layer 1
10
-26.740693
20
37.027260
11
-26.266079
21
37.365700
0
LINE
8
Layer 1
10
-26.266079
20
37.365700
11
-25.791465
21
37.704150
0
LINE
8
Layer 1
10
-25.791465
20
37.704150
11
-25.142813
21
38.136780
0
LINE
8
Layer 1
10
-25.142813
20
38.136780
11
-24.494162
21
38.569420
0
LINE
8
Layer 1
10
-24.494162
20
38.569420
11
-24.065807
21
38.837940
0
LINE
8
Layer 1
10
-24.065807
20
38.837940
11
-23.637454
21
39.106440
0
LINE
8
Layer 1
10
-23.637454
20
39.106440
11
-23.123429
21
39.412900
0
LINE
8
Layer 1
10
-23.123429
20
39.412900
11
-22.609402
21
39.719370
0
LINE
8
Layer 1
10
-22.609402
20
39.719370
11
-22.058662
21
40.025550
0
LINE
8
Layer 1
10
-22.058662
20
40.025550
11
-21.507918
21
40.331740
0
LINE
8
Layer 1
10
-21.507918
20
40.331740
11
-21.091803
21
40.552230
0
LINE
8
Layer 1
10
-21.091803
20
40.552230
11
-20.675688
21
40.772720
0
LINE
8
Layer 1
10
-20.675688
20
40.772720
11
-20.222855
21
40.999290
0
LINE
8
Layer 1
10
-20.222855
20
40.999290
11
-19.770026
21
41.225840
0
LINE
8
Layer 1
10
-19.770026
20
41.225840
11
-19.329431
21
41.433540
0
LINE
8
Layer 1
10
-19.329431
20
41.433540
11
-18.888838
21
41.641230
0
LINE
8
Layer 1
10
-18.888838
20
41.641230
11
-18.423768
21
41.849470
0
LINE
8
Layer 1
10
-18.423768
20
41.849470
11
-17.958698
21
42.057700
0
LINE
8
Layer 1
10
-17.958698
20
42.057700
11
-17.371239
21
42.302530
0
LINE
8
Layer 1
10
-17.371239
20
42.302530
11
-16.783782
21
42.547360
0
LINE
8
Layer 1
10
-16.783782
20
42.547360
11
-16.245278
21
42.754880
0
LINE
8
Layer 1
10
-16.245278
20
42.754880
11
-15.706776
21
42.962380
0
LINE
8
Layer 1
10
-15.706776
20
42.962380
11
-15.266182
21
43.121250
0
LINE
8
Layer 1
10
-15.266182
20
43.121250
11
-14.825590
21
43.280150
0
LINE
8
Layer 1
10
-14.825590
20
43.280150
11
-14.287087
21
43.460440
0
LINE
8
Layer 1
10
-14.287087
20
43.460440
11
-13.748583
21
43.640750
0
LINE
8
Layer 1
10
-13.748583
20
43.640750
11
-13.234559
21
43.798780
0
LINE
8
Layer 1
10
-13.234559
20
43.798780
11
-12.720533
21
43.956810
0
LINE
8
Layer 1
10
-12.720533
20
43.956810
11
-12.193807
21
44.104490
0
LINE
8
Layer 1
10
-12.193807
20
44.104490
11
-11.667078
21
44.252160
0
LINE
8
Layer 1
10
-11.667078
20
44.252160
11
-11.141279
21
44.387400
0
LINE
8
Layer 1
10
-11.141279
20
44.387400
11
-10.615477
21
44.522640
0
LINE
8
Layer 1
10
-10.615477
20
44.522640
11
-10.083352
21
44.645540
0
LINE
8
Layer 1
10
-10.083352
20
44.645540
11
-9.551226
21
44.768440
0
LINE
8
Layer 1
10
-9.551226
20
44.768440
11
-9.006347
21
44.879590
0
LINE
8
Layer 1
10
-9.006347
20
44.879590
11
-8.461466
21
44.990730
0
LINE
8
Layer 1
10
-8.461466
20
44.990730
11
-7.935202
21
45.086030
0
LINE
8
Layer 1
10
-7.935202
20
45.086030
11
-7.408938
21
45.181330
0
LINE
8
Layer 1
10
-7.408938
20
45.181330
11
-6.845958
21
45.268030
0
LINE
8
Layer 1
10
-6.845958
20
45.268030
11
-6.282977
21
45.354730
0
LINE
8
Layer 1
10
-6.282977
20
45.354730
11
-5.830145
21
45.415130
0
LINE
8
Layer 1
10
-5.830145
20
45.415130
11
-5.377314
21
45.475630
0
LINE
8
Layer 1
10
-5.377314
20
45.475630
11
-4.936720
21
45.525530
0
LINE
8
Layer 1
10
-4.936720
20
45.525530
11
-4.496127
21
45.575430
0
LINE
8
Layer 1
10
-4.496127
20
45.575430
11
-3.957624
21
45.624130
0
LINE
8
Layer 1
10
-3.957624
20
45.624130
11
-3.419122
21
45.672830
0
LINE
8
Layer 1
10
-3.419122
20
45.672830
11
-2.807188
21
45.710530
0
LINE
8
Layer 1
10
-2.807188
20
45.710530
11
-2.195252
21
45.748230
0
LINE
8
Layer 1
10
-2.195252
20
45.748230
11
-1.998314
21
45.762030
0
LINE
8
Layer 1
10
-1.998314
20
45.762030
11
-1.801373
21
45.775830
0
LINE
8
Layer 1
10
-1.801373
20
45.775830
11
-0.895798
21
50.908200
0
LINE
8
Layer 1
10
-0.895798
20
50.908200
11
0.009773
21
56.040540
0
LINE
8
Layer 1
10
0.009773
20
56.040540
11
0.142276
21
56.040500
0
LINE
8
Layer 1
10
0.142276
20
56.040500
11
0.274818
21
56.040500
0
LINE
8
Layer 1
10
0.274818
20
56.040500
11
1.178927
21
50.912480
0
LINE
8
Layer 1
10
1.178927
20
50.912480
11
2.083044
21
45.784480
0
LINE
8
Layer 1
10
2.083044
20
45.784480
11
2.086764
21
45.778480
0
LINE
8
Layer 1
10
2.086764
20
45.778480
11
2.090484
21
45.772480
0
LINE
8
Layer 1
10
2.090484
20
45.772480
11
2.737898
21
45.734780
0
LINE
8
Layer 1
10
2.737898
20
45.734780
11
3.385321
21
45.697080
0
LINE
8
Layer 1
10
3.385321
20
45.697080
11
3.972779
21
45.647680
0
LINE
8
Layer 1
10
3.972779
20
45.647680
11
4.560237
21
45.598280
0
LINE
8
Layer 1
10
4.560237
20
45.598280
11
5.221125
21
45.524280
0
LINE
8
Layer 1
10
5.221125
20
45.524280
11
5.882013
21
45.450280
0
LINE
8
Layer 1
10
5.882013
20
45.450280
11
6.555144
21
45.354580
0
LINE
8
Layer 1
10
6.555144
20
45.354580
11
7.228276
21
45.258980
0
LINE
8
Layer 1
10
7.228276
20
45.258980
11
7.815735
21
45.158970
0
LINE
8
Layer 1
10
7.815735
20
45.158970
11
8.403184
21
45.058970
0
LINE
8
Layer 1
10
8.403184
20
45.058970
11
9.064239
21
44.926770
0
LINE
8
Layer 1
10
9.064239
20
44.926770
11
9.725285
21
44.794550
0
LINE
8
Layer 1
10
9.725285
20
44.794550
11
10.324820
21
44.656350
0
LINE
8
Layer 1
10
10.324820
20
44.656350
11
10.924364
21
44.518130
0
LINE
8
Layer 1
10
10.924364
20
44.518130
11
11.401671
21
44.396170
0
LINE
8
Layer 1
10
11.401671
20
44.396170
11
11.878980
21
44.274220
0
LINE
8
Layer 1
10
11.878980
20
44.274220
11
12.233896
21
44.175820
0
LINE
8
Layer 1
10
12.233896
20
44.175820
11
12.588823
21
44.077420
0
LINE
8
Layer 1
10
12.588823
20
44.077420
11
13.121864
21
43.920570
0
LINE
8
Layer 1
10
13.121864
20
43.920570
11
13.654913
21
43.763720
0
LINE
8
Layer 1
10
13.654913
20
43.763720
11
14.260069
21
43.564980
0
LINE
8
Layer 1
10
14.260069
20
43.564980
11
14.865226
21
43.366240
0
LINE
8
Layer 1
10
14.865226
20
43.366240
11
15.408972
21
43.173340
0
LINE
8
Layer 1
10
15.408972
20
43.173340
11
15.952718
21
42.980450
0
LINE
8
Layer 1
10
15.952718
20
42.980450
11
16.487510
21
42.774920
0
LINE
8
Layer 1
10
16.487510
20
42.774920
11
17.022292
21
42.569400
0
LINE
8
Layer 1
10
17.022292
20
42.569400
11
17.585145
21
42.336580
0
LINE
8
Layer 1
10
17.585145
20
42.336580
11
18.148006
21
42.103770
0
LINE
8
Layer 1
10
18.148006
20
42.103770
11
18.721814
21
41.847540
0
LINE
8
Layer 1
10
18.721814
20
41.847540
11
19.295630
21
41.591330
0
LINE
8
Layer 1
10
19.295630
20
41.591330
11
19.913946
21
41.292970
0
LINE
8
Layer 1
10
19.913946
20
41.292970
11
20.532262
21
40.994630
0
LINE
8
Layer 1
10
20.532262
20
40.994630
11
21.076620
21
40.712010
0
LINE
8
Layer 1
10
21.076620
20
40.712010
11
21.620986
21
40.429400
0
LINE
8
Layer 1
10
21.620986
20
40.429400
11
22.024857
21
40.208480
0
LINE
8
Layer 1
10
22.024857
20
40.208480
11
22.428735
21
39.987570
0
LINE
8
Layer 1
10
22.428735
20
39.987570
11
22.771418
21
39.791220
0
LINE
8
Layer 1
10
22.771418
20
39.791220
11
23.114110
21
39.594880
0
LINE
8
Layer 1
10
23.114110
20
39.594880
11
23.505746
21
39.361580
0
LINE
8
Layer 1
10
23.505746
20
39.361580
11
23.897381
21
39.128280
0
LINE
8
Layer 1
10
23.897381
20
39.128280
11
24.362456
21
38.835510
0
LINE
8
Layer 1
10
24.362456
20
38.835510
11
24.827522
21
38.542750
0
LINE
8
Layer 1
10
24.827522
20
38.542750
11
25.317074
21
38.218790
0
LINE
8
Layer 1
10
25.317074
20
38.218790
11
25.806617
21
37.894850
0
LINE
8
Layer 1
10
25.806617
20
37.894850
11
26.320645
21
37.534690
0
LINE
8
Layer 1
10
26.320645
20
37.534690
11
26.834673
21
37.174540
0
LINE
8
Layer 1
10
26.834673
20
37.174540
11
27.495561
21
36.677470
0
LINE
8
Layer 1
10
27.495561
20
36.677470
11
28.156450
21
36.180410
0
LINE
8
Layer 1
10
28.156450
20
36.180410
11
28.624313
21
35.804740
0
LINE
8
Layer 1
10
28.624313
20
35.804740
11
29.092184
21
35.429060
0
LINE
8
Layer 1
10
29.092184
20
35.429060
11
29.541108
21
35.049660
0
LINE
8
Layer 1
10
29.541108
20
35.049660
11
29.990032
21
34.670250
0
LINE
8
Layer 1
10
29.990032
20
34.670250
11
30.437122
21
34.271820
0
LINE
8
Layer 1
10
30.437122
20
34.271820
11
30.884213
21
33.873370
0
LINE
8
Layer 1
10
30.884213
20
33.873370
11
31.307178
21
33.478100
0
LINE
8
Layer 1
10
31.307178
20
33.478100
11
31.730152
21
33.082830
0
LINE
8
Layer 1
10
31.730152
20
33.082830
11
32.391041
21
32.419700
0
LINE
8
Layer 1
10
32.391041
20
32.419700
11
33.051930
21
31.756600
0
LINE
8
Layer 1
10
33.051930
20
31.756600
11
33.481813
21
31.291950
0
LINE
8
Layer 1
10
33.481813
20
31.291950
11
33.911706
21
30.827310
0
LINE
8
Layer 1
10
33.911706
20
30.827310
11
34.289608
21
30.398960
0
LINE
8
Layer 1
10
34.289608
20
30.398960
11
34.667519
21
29.970600
0
LINE
8
Layer 1
10
34.667519
20
29.970600
11
34.987744
21
29.591200
0
LINE
8
Layer 1
10
34.987744
20
29.591200
11
35.307959
21
29.211800
0
LINE
8
Layer 1
10
35.307959
20
29.211800
11
35.716709
21
28.701190
0
LINE
8
Layer 1
10
35.716709
20
28.701190
11
36.125459
21
28.190590
0
LINE
8
Layer 1
10
36.125459
20
28.190590
11
36.549999
21
27.624200
0
LINE
8
Layer 1
10
36.549999
20
27.624200
11
36.974548
21
27.057780
0
LINE
8
Layer 1
10
36.974548
20
27.057780
11
37.262285
21
26.653920
0
LINE
8
Layer 1
10
37.262285
20
26.653920
11
37.550033
21
26.250040
0
LINE
8
Layer 1
10
37.550033
20
26.250040
11
38.031110
21
25.527950
0
LINE
8
Layer 1
10
38.031110
20
25.527950
11
38.512188
21
24.805870
0
LINE
8
Layer 1
10
38.512188
20
24.805870
11
38.717327
21
24.475420
0
LINE
8
Layer 1
10
38.717327
20
24.475420
11
38.922456
21
24.144980
0
LINE
8
Layer 1
10
38.922456
20
24.144980
11
39.166649
21
23.741100
0
LINE
8
Layer 1
10
39.166649
20
23.741100
11
39.410841
21
23.337220
0
LINE
8
Layer 1
10
39.410841
20
23.337220
11
39.703950
21
22.823190
0
LINE
8
Layer 1
10
39.703950
20
22.823190
11
39.997050
21
22.309170
0
LINE
8
Layer 1
10
39.997050
20
22.309170
11
40.279296
21
21.782910
0
LINE
8
Layer 1
10
40.279296
20
21.782910
11
40.561541
21
21.256640
0
LINE
8
Layer 1
10
40.561541
20
21.256640
11
40.944258
21
20.485600
0
LINE
8
Layer 1
10
40.944258
20
20.485600
11
41.326985
21
19.714560
0
LINE
8
Layer 1
10
41.326985
20
19.714560
11
41.587199
21
19.139350
0
LINE
8
Layer 1
10
41.587199
20
19.139350
11
41.847413
21
18.564130
0
LINE
8
Layer 1
10
41.847413
20
18.564130
11
42.035308
21
18.123540
0
LINE
8
Layer 1
10
42.035308
20
18.123540
11
42.223194
21
17.682940
0
LINE
8
Layer 1
10
42.223194
20
17.682940
11
42.419461
21
17.193390
0
LINE
8
Layer 1
10
42.419461
20
17.193390
11
42.615719
21
16.703840
0
LINE
8
Layer 1
10
42.615719
20
16.703840
11
42.811635
21
16.177570
0
LINE
8
Layer 1
10
42.811635
20
16.177570
11
43.007540
21
15.651310
0
LINE
8
Layer 1
10
43.007540
20
15.651310
11
43.214466
21
15.051630
0
LINE
8
Layer 1
10
43.214466
20
15.051630
11
43.421393
21
14.451920
0
LINE
8
Layer 1
10
43.421393
20
14.451920
11
43.640932
21
13.742080
0
LINE
8
Layer 1
10
43.640932
20
13.742080
11
43.860482
21
13.032230
0
LINE
8
Layer 1
10
43.860482
20
13.032230
11
44.042116
21
12.370600
0
LINE
8
Layer 1
10
44.042116
20
12.370600
11
44.223751
21
11.708980
0
LINE
8
Layer 1
10
44.223751
20
11.708980
11
44.344727
21
11.220170
0
LINE
8
Layer 1
10
44.344727
20
11.220170
11
44.465702
21
10.731360
0
LINE
8
Layer 1
10
44.465702
20
10.731360
11
44.601162
21
10.119420
0
LINE
8
Layer 1
10
44.601162
20
10.119420
11
44.736613
21
9.507500
0
LINE
8
Layer 1
10
44.736613
20
9.507500
11
44.822553
21
9.066890
0
LINE
8
Layer 1
10
44.822553
20
9.066890
11
44.908403
21
8.626310
0
LINE
8
Layer 1
10
44.908403
20
8.626310
11
44.995173
21
8.136750
0
LINE
8
Layer 1
10
44.995173
20
8.136750
11
45.081943
21
7.647210
0
LINE
8
Layer 1
10
45.081943
20
7.647210
11
45.167233
21
7.084230
0
LINE
8
Layer 1
10
45.167233
20
7.084230
11
45.252523
21
6.521240
0
LINE
8
Layer 1
10
45.252523
20
6.521240
11
45.325313
21
5.933790
0
LINE
8
Layer 1
10
45.325313
20
5.933790
11
45.398103
21
5.346330
0
LINE
8
Layer 1
10
45.398103
20
5.346330
11
45.459603
21
4.722160
0
LINE
8
Layer 1
10
45.459603
20
4.722160
11
45.521093
21
4.097970
0
LINE
8
Layer 1
10
45.521093
20
4.097970
11
45.558323
21
3.583960
0
LINE
8
Layer 1
10
45.558323
20
3.583960
11
45.595553
21
3.069940
0
LINE
8
Layer 1
10
45.595553
20
3.069940
11
45.621663
21
2.581320
0
LINE
8
Layer 1
10
45.621663
20
2.581320
11
45.647773
21
2.092710
0
LINE
8
Layer 1
10
45.647773
20
2.092710
11
45.652373
21
2.089710
0
LINE
8
Layer 1
10
45.652373
20
2.089710
11
45.656973
21
2.086710
0
LINE
8
Layer 1
10
45.656973
20
2.086710
11
50.858423
21
1.170140
0
LINE
8
Layer 1
10
50.858423
20
1.170140
11
56.059863
21
0.253560
0
LINE
8
Layer 1
10
56.059863
20
0.253560
11
56.059900
21
0.119610
0
LINE
8
Layer 1
10
56.059900
20
0.119610
11
56.059900
21
-0.014370
0
LINE
8
Layer 1
10
56.059900
20
-0.014370
11
50.846210
21
-0.934280
0
LINE
8
Layer 1
10
50.846210
20
-0.934280
11
45.632530
21
-1.854200
0
LINE
8
Layer 1
10
45.632530
20
-1.854200
11
45.614930
21
-2.158460
0
LINE
8
Layer 1
10
45.614930
20
-2.158460
11
45.597330
21
-2.462740
0
LINE
8
Layer 1
10
45.597330
20
-2.462740
11
45.559000
21
-3.001240
0
LINE
8
Layer 1
10
45.559000
20
-3.001240
11
45.520660
21
-3.539750
0
LINE
8
Layer 1
10
45.520660
20
-3.539750
11
45.459910
21
-4.163920
0
LINE
8
Layer 1
10
45.459910
20
-4.163920
11
45.399160
21
-4.788100
0
LINE
8
Layer 1
10
45.399160
20
-4.788100
11
45.338130
21
-5.277640
0
LINE
8
Layer 1
10
45.338130
20
-5.277640
11
45.277100
21
-5.767190
0
LINE
8
Layer 1
10
45.277100
20
-5.767190
11
45.227090
21
-6.122120
0
LINE
8
Layer 1
10
45.227090
20
-6.122120
11
45.177080
21
-6.477030
0
LINE
8
Layer 1
10
45.177080
20
-6.477030
11
45.066902
21
-7.150170
0
LINE
8
Layer 1
10
45.066902
20
-7.150170
11
44.956716
21
-7.823300
0
LINE
8
Layer 1
10
44.956716
20
-7.823300
11
44.821794
21
-8.507110
0
LINE
8
Layer 1
10
44.821794
20
-8.507110
11
44.686880
21
-9.190930
0
LINE
8
Layer 1
10
44.686880
20
-9.190930
11
44.564988
21
-9.730980
0
LINE
8
Layer 1
10
44.564988
20
-9.730980
11
44.443095
21
-10.271040
0
LINE
8
Layer 1
10
44.443095
20
-10.271040
11
44.282622
21
-10.907450
0
LINE
8
Layer 1
10
44.282622
20
-10.907450
11
44.122158
21
-11.543860
0
LINE
8
Layer 1
10
44.122158
20
-11.543860
11
43.941875
21
-12.173950
0
LINE
8
Layer 1
10
43.941875
20
-12.173950
11
43.761601
21
-12.804030
0
LINE
8
Layer 1
10
43.761601
20
-12.804030
11
43.614862
21
-13.276310
0
LINE
8
Layer 1
10
43.614862
20
-13.276310
11
43.468122
21
-13.748600
0
LINE
8
Layer 1
10
43.468122
20
-13.748600
11
43.256612
21
-14.371890
0
LINE
8
Layer 1
10
43.256612
20
-14.371890
11
43.045101
21
-14.995170
0
LINE
8
Layer 1
10
43.045101
20
-14.995170
11
42.849427
21
-15.521430
0
LINE
8
Layer 1
10
42.849427
20
-15.521430
11
42.653752
21
-16.047700
0
LINE
8
Layer 1
10
42.653752
20
-16.047700
11
42.438797
21
-16.586200
0
LINE
8
Layer 1
10
42.438797
20
-16.586200
11
42.223841
21
-17.124710
0
LINE
8
Layer 1
10
42.223841
20
-17.124710
11
42.089114
21
-17.442910
0
LINE
8
Layer 1
10
42.089114
20
-17.442910
11
41.954385
21
-17.761110
0
LINE
8
Layer 1
10
41.954385
20
-17.761110
11
41.820046
21
-18.067090
0
LINE
8
Layer 1
10
41.820046
20
-18.067090
11
41.685707
21
-18.373050
0
LINE
8
Layer 1
10
41.685707
20
-18.373050
11
41.471779
21
-18.838130
0
LINE
8
Layer 1
10
41.471779
20
-18.838130
11
41.257860
21
-19.303190
0
LINE
8
Layer 1
10
41.257860
20
-19.303190
11
40.872791
21
-20.074230
0
LINE
8
Layer 1
10
40.872791
20
-20.074230
11
40.487721
21
-20.845270
0
LINE
8
Layer 1
10
40.487721
20
-20.845270
11
40.223080
21
-21.334820
0
LINE
8
Layer 1
10
40.223080
20
-21.334820
11
39.958439
21
-21.824370
0
LINE
8
Layer 1
10
39.958439
20
-21.824370
11
39.632223
21
-22.393200
0
LINE
8
Layer 1
10
39.632223
20
-22.393200
11
39.305997
21
-22.962040
0
LINE
8
Layer 1
10
39.305997
20
-22.962040
11
38.995376
21
-23.470210
0
LINE
8
Layer 1
10
38.995376
20
-23.470210
11
38.684746
21
-23.978380
0
LINE
8
Layer 1
10
38.684746
20
-23.978380
11
38.368383
21
-24.467920
0
LINE
8
Layer 1
10
38.368383
20
-24.467920
11
38.052020
21
-24.957480
0
LINE
8
Layer 1
10
38.052020
20
-24.957480
11
37.707605
21
-25.459260
0
LINE
8
Layer 1
10
37.707605
20
-25.459260
11
37.363191
21
-25.961050
0
LINE
8
Layer 1
10
37.363191
20
-25.961050
11
36.954432
21
-26.524030
0
LINE
8
Layer 1
10
36.954432
20
-26.524030
11
36.545673
21
-27.087010
0
LINE
8
Layer 1
10
36.545673
20
-27.087010
11
36.146360
21
-27.601030
0
LINE
8
Layer 1
10
36.146360
20
-27.601030
11
35.747056
21
-28.115060
0
LINE
8
Layer 1
10
35.747056
20
-28.115060
11
35.427628
21
-28.506700
0
LINE
8
Layer 1
10
35.427628
20
-28.506700
11
35.108199
21
-28.898340
0
LINE
8
Layer 1
10
35.108199
20
-28.898340
11
34.676371
21
-29.400130
0
LINE
8
Layer 1
10
34.676371
20
-29.400130
11
34.244543
21
-29.901920
0
LINE
8
Layer 1
10
34.244543
20
-29.901920
11
33.968983
21
-30.207880
0
LINE
8
Layer 1
10
33.968983
20
-30.207880
11
33.693425
21
-30.513840
0
LINE
8
Layer 1
10
33.693425
20
-30.513840
11
33.197436
21
-31.040110
0
LINE
8
Layer 1
10
33.197436
20
-31.040110
11
32.701449
21
-31.566370
0
LINE
8
Layer 1
10
32.701449
20
-31.566370
11
32.141986
21
-32.117230
0
LINE
8
Layer 1
10
32.141986
20
-32.117230
11
31.582523
21
-32.668100
0
LINE
8
Layer 1
10
31.582523
20
-32.668100
11
31.207038
21
-33.016940
0
LINE
8
Layer 1
10
31.207038
20
-33.016940
11
30.831545
21
-33.365780
0
LINE
8
Layer 1
10
30.831545
20
-33.365780
11
30.411524
21
-33.740660
0
LINE
8
Layer 1
10
30.411524
20
-33.740660
11
29.991494
21
-34.115510
0
LINE
8
Layer 1
10
29.991494
20
-34.115510
11
29.501942
21
-34.528550
0
LINE
8
Layer 1
10
29.501942
20
-34.528550
11
29.012400
21
-34.941590
0
LINE
8
Layer 1
10
29.012400
20
-34.941590
11
28.522848
21
-35.331950
0
LINE
8
Layer 1
10
28.522848
20
-35.331950
11
28.033307
21
-35.722310
0
LINE
8
Layer 1
10
28.033307
20
-35.722310
11
27.421371
21
-36.180180
0
LINE
8
Layer 1
10
27.421371
20
-36.180180
11
26.809436
21
-36.638070
0
LINE
8
Layer 1
10
26.809436
20
-36.638070
11
26.356604
21
-36.955570
0
LINE
8
Layer 1
10
26.356604
20
-36.955570
11
25.903772
21
-37.273060
0
LINE
8
Layer 1
10
25.903772
20
-37.273060
11
25.426463
21
-37.591680
0
LINE
8
Layer 1
10
25.426463
20
-37.591680
11
24.949154
21
-37.910320
0
LINE
8
Layer 1
10
24.949154
20
-37.910320
11
24.545276
21
-38.167230
0
LINE
8
Layer 1
10
24.545276
20
-38.167230
11
24.141396
21
-38.424160
0
LINE
8
Layer 1
10
24.141396
20
-38.424160
11
23.728183
21
-38.674640
0
LINE
8
Layer 1
10
23.728183
20
-38.674640
11
23.314970
21
-38.925110
0
LINE
8
Layer 1
10
23.314970
20
-38.925110
11
22.804562
21
-39.217750
0
LINE
8
Layer 1
10
22.804562
20
-39.217750
11
22.294155
21
-39.510380
0
LINE
8
Layer 1
10
22.294155
20
-39.510380
11
21.749130
21
-39.805370
0
LINE
8
Layer 1
10
21.749130
20
-39.805370
11
21.204105
21
-40.100370
0
LINE
8
Layer 1
10
21.204105
20
-40.100370
11
20.482020
21
-40.460480
0
LINE
8
Layer 1
10
20.482020
20
-40.460480
11
19.759945
21
-40.820580
0
LINE
8
Layer 1
10
19.759945
20
-40.820580
11
19.209197
21
-41.073700
0
LINE
8
Layer 1
10
19.209197
20
-41.073700
11
18.658458
21
-41.326830
0
LINE
8
Layer 1
10
18.658458
20
-41.326830
11
17.985327
21
-41.614130
0
LINE
8
Layer 1
10
17.985327
20
-41.614130
11
17.312205
21
-41.901430
0
LINE
8
Layer 1
10
17.312205
20
-41.901430
11
16.712504
21
-42.134840
0
LINE
8
Layer 1
10
16.712504
20
-42.134840
11
16.112812
21
-42.368230
0
LINE
8
Layer 1
10
16.112812
20
-42.368230
11
15.659980
21
-42.532170
0
LINE
8
Layer 1
10
15.659980
20
-42.532170
11
15.207147
21
-42.696100
0
LINE
8
Layer 1
10
15.207147
20
-42.696100
11
14.742073
21
-42.854050
0
LINE
8
Layer 1
10
14.742073
20
-42.854050
11
14.277007
21
-43.012010
0
LINE
8
Layer 1
10
14.277007
20
-43.012010
11
13.616110
21
-43.216680
0
LINE
8
Layer 1
10
13.616110
20
-43.216680
11
12.955221
21
-43.421340
0
LINE
8
Layer 1
10
12.955221
20
-43.421340
11
12.380006
21
-43.581260
0
LINE
8
Layer 1
10
12.380006
20
-43.581260
11
11.804791
21
-43.741200
0
LINE
8
Layer 1
10
11.804791
20
-43.741200
11
11.168369
21
-43.900170
0
LINE
8
Layer 1
10
11.168369
20
-43.900170
11
10.531957
21
-44.059140
0
LINE
8
Layer 1
10
10.531957
20
-44.059140
11
9.920022
21
-44.193720
0
LINE
8
Layer 1
10
9.920022
20
-44.193720
11
9.308088
21
-44.328290
0
LINE
8
Layer 1
10
9.308088
20
-44.328290
11
8.866499
21
-44.414690
0
LINE
8
Layer 1
10
8.866499
20
-44.414690
11
8.424900
21
-44.501090
0
LINE
8
Layer 1
10
8.424900
20
-44.501090
11
7.777255
21
-44.610600
0
LINE
8
Layer 1
10
7.777255
20
-44.610600
11
7.129600
21
-44.720120
0
LINE
8
Layer 1
10
7.129600
20
-44.720120
11
6.701245
21
-44.781720
0
LINE
8
Layer 1
10
6.701245
20
-44.781720
11
6.272889
21
-44.843420
0
LINE
8
Layer 1
10
6.272889
20
-44.843420
11
5.783347
21
-44.905420
0
LINE
8
Layer 1
10
5.783347
20
-44.905420
11
5.293796
21
-44.967420
0
LINE
8
Layer 1
10
5.293796
20
-44.967420
11
4.694103
21
-45.027820
0
LINE
8
Layer 1
10
4.694103
20
-45.027820
11
4.094401
21
-45.088220
0
LINE
8
Layer 1
10
4.094401
20
-45.088220
11
3.592616
21
-45.125420
0
LINE
8
Layer 1
10
3.592616
20
-45.125420
11
3.090830
21
-45.162620
0
LINE
8
Layer 1
10
3.090830
20
-45.162620
11
2.625765
21
-45.189820
0
LINE
8
Layer 1
10
2.625765
20
-45.189820
11
2.160689
21
-45.217020
0
LINE
8
Layer 1
10
2.160689
20
-45.217020
11
2.148839
21
-45.228620
0
LINE
8
Layer 1
10
2.148839
20
-45.228620
11
2.136989
21
-45.240220
0
LINE
8
Layer 1
10
2.136989
20
-45.240220
11
1.205515
21
-50.519560
0
LINE
8
Layer 1
10
1.205515
20
-50.519560
11
0.274042
21
-55.798920
0
LINE
8
Layer 1
10
0.274042
20
-55.798920
11
0.146203
21
-55.806920
0
LINE
8
Layer 1
10
0.146203
20
-55.806920
11
0.018365
21
-55.814920
0
LINE
8
Layer 1
10
0.018365
20
-55.814920
11
0.008774
21
-55.779800
0
LINE
8
Layer 1
10
0.006914
20
-0.395300
11
-0.006334
21
-0.382100
0
LINE
8
Layer 1
10
-0.006334
20
-0.382100
11
-4.036134
21
-4.411890
0
LINE
8
Layer 1
10
-4.036134
20
-4.411890
11
-8.065934
21
-8.441690
0
LINE
8
Layer 1
10
-8.065934
20
-8.441690
11
-4.057004
21
-31.164690
0
LINE
8
Layer 1
10
-4.057004
20
-31.164690
11
-0.048074
21
-53.887690
0
LINE
8
Layer 1
10
-0.048074
20
-53.887690
11
-0.020102
21
-54.010070
0
LINE
8
Layer 1
10
-0.020102
20
-54.010070
11
0.007870
21
-54.132460
0
LINE
8
Layer 1
10
0.007870
20
-54.132460
11
0.014320
21
-27.270560
0
LINE
8
Layer 1
10
0.014320
20
-27.270560
11
0.020770
21
-0.408660
0
LINE
8
Layer 1
10
0.020770
20
-0.408660
11
0.006914
21
-0.395300
0
LINE
8
Layer 1
10
-3.332206
20
-36.894100
11
-3.331228
21
-36.875700
0
LINE
8
Layer 1
10
-3.331228
20
-36.875700
11
-4.929008
21
-27.815020
0
LINE
8
Layer 1
10
-4.929008
20
-27.815020
11
-6.526788
21
-18.754350
0
LINE
8
Layer 1
10
-6.526788
20
-18.754350
11
-6.542157
21
-18.764350
0
LINE
8
Layer 1
10
-6.542157
20
-18.764350
11
-6.557526
21
-18.774350
0
LINE
8
Layer 1
10
-6.557526
20
-18.774350
11
-7.959146
21
-20.974600
0
LINE
8
Layer 1
10
-7.959146
20
-20.974600
11
-9.360766
21
-23.174840
0
LINE
8
Layer 1
10
-9.360766
20
-23.174840
11
-9.482406
21
-23.123540
0
LINE
8
Layer 1
10
-9.482406
20
-23.123540
11
-9.604047
21
-23.072240
0
LINE
8
Layer 1
10
-9.604047
20
-23.072240
11
-9.591327
21
-22.998540
0
LINE
8
Layer 1
10
-9.591327
20
-22.998540
11
-9.578607
21
-22.924840
0
LINE
8
Layer 1
10
-9.578607
20
-22.924840
11
-8.524287
21
-18.168550
0
LINE
8
Layer 1
10
-8.524287
20
-18.168550
11
-7.469967
21
-13.412250
0
LINE
8
Layer 1
10
-7.469967
20
-13.412250
11
-7.535668
21
-13.034690
0
LINE
8
Layer 1
10
-7.535668
20
-13.034690
11
-7.601369
21
-12.657120
0
LINE
8
Layer 1
10
-7.601369
20
-12.657120
11
-7.618097
21
-12.630020
0
LINE
8
Layer 1
10
-7.618097
20
-12.630020
11
-7.634825
21
-12.603020
0
LINE
8
Layer 1
10
-7.634825
20
-12.603020
11
-15.560605
21
-18.151130
0
LINE
8
Layer 1
10
-15.560605
20
-18.151130
11
-23.486385
21
-23.699220
0
LINE
8
Layer 1
10
-23.486385
20
-23.699220
11
-23.581865
21
-23.603720
0
LINE
8
Layer 1
10
-23.581865
20
-23.603720
11
-23.677345
21
-23.508220
0
LINE
8
Layer 1
10
-23.677345
20
-23.508220
11
-18.129235
21
-15.582440
0
LINE
8
Layer 1
10
-18.129235
20
-15.582440
11
-12.581125
21
-7.656670
0
LINE
8
Layer 1
10
-12.581125
20
-7.656670
11
-12.608185
21
-7.639970
0
LINE
8
Layer 1
10
-12.608185
20
-7.639970
11
-12.635235
21
-7.623270
0
LINE
8
Layer 1
10
-12.635235
20
-7.623270
11
-13.012391
21
-7.557570
0
LINE
8
Layer 1
10
-13.012391
20
-7.557570
11
-13.389546
21
-7.491870
0
LINE
8
Layer 1
10
-13.389546
20
-7.491870
11
-18.194426
21
-8.556570
0
LINE
8
Layer 1
10
-18.194426
20
-8.556570
11
-22.999306
21
-9.621270
0
LINE
8
Layer 1
10
-22.999306
20
-9.621270
11
-23.025800
21
-9.621330
0
LINE
8
Layer 1
10
-23.025800
20
-9.621330
11
-23.052300
21
-9.621330
0
LINE
8
Layer 1
10
-23.052300
20
-9.621330
11
-23.104100
21
-9.498720
0
LINE
8
Layer 1
10
-23.104100
20
-9.498720
11
-23.155900
21
-9.376130
0
LINE
8
Layer 1
10
-23.155900
20
-9.376130
11
-23.107520
21
-9.350230
0
LINE
8
Layer 1
10
-23.107520
20
-9.350230
11
-23.059140
21
-9.324330
0
LINE
8
Layer 1
10
-23.059140
20
-9.324330
11
-20.924920
21
-7.965060
0
LINE
8
Layer 1
10
-20.924920
20
-7.965060
11
-18.790700
21
-6.605810
0
LINE
8
Layer 1
10
-18.790700
20
-6.605810
11
-18.760820
21
-6.577510
0
LINE
8
Layer 1
10
-18.760820
20
-6.577510
11
-18.730930
21
-6.549110
0
LINE
8
Layer 1
10
-18.730930
20
-6.549110
11
-27.872650
21
-4.935930
0
LINE
8
Layer 1
10
-27.872650
20
-4.935930
11
-37.014370
21
-3.322740
0
LINE
8
Layer 1
10
-37.014370
20
-3.322740
11
-37.023870
21
-3.332940
0
LINE
8
Layer 1
10
-37.023870
20
-3.332940
11
-37.033370
21
-3.343140
0
LINE
8
Layer 1
10
-37.033370
20
-3.343140
11
-36.975530
21
-3.857170
0
LINE
8
Layer 1
10
-36.975530
20
-3.857170
11
-36.917690
21
-4.371190
0
LINE
8
Layer 1
10
-36.917690
20
-4.371190
11
-36.842290
21
-4.909700
0
LINE
8
Layer 1
10
-36.842290
20
-4.909700
11
-36.766890
21
-5.448200
0
LINE
8
Layer 1
10
-36.766890
20
-5.448200
11
-36.671120
21
-6.011180
0
LINE
8
Layer 1
10
-36.671120
20
-6.011180
11
-36.575350
21
-6.574160
0
LINE
8
Layer 1
10
-36.575350
20
-6.574160
11
-36.453387
21
-7.174070
0
LINE
8
Layer 1
10
-36.453387
20
-7.174070
11
-36.331424
21
-7.773980
0
LINE
8
Layer 1
10
-36.331424
20
-7.773980
11
-36.231349
21
-8.202120
0
LINE
8
Layer 1
10
-36.231349
20
-8.202120
11
-36.131275
21
-8.630250
0
LINE
8
Layer 1
10
-36.131275
20
-8.630250
11
-36.020096
21
-9.058610
0
LINE
8
Layer 1
10
-36.020096
20
-9.058610
11
-35.908918
21
-9.486960
0
LINE
8
Layer 1
10
-35.908918
20
-9.486960
11
-35.787332
21
-9.915320
0
LINE
8
Layer 1
10
-35.787332
20
-9.915320
11
-35.665746
21
-10.343670
0
LINE
8
Layer 1
10
-35.665746
20
-10.343670
11
-35.544516
21
-10.738180
0
LINE
8
Layer 1
10
-35.544516
20
-10.738180
11
-35.423285
21
-11.132670
0
LINE
8
Layer 1
10
-35.423285
20
-11.132670
11
-35.226939
21
-11.712770
0
LINE
8
Layer 1
10
-35.226939
20
-11.712770
11
-35.030594
21
-12.292870
0
LINE
8
Layer 1
10
-35.030594
20
-12.292870
11
-34.869588
21
-12.725720
0
LINE
8
Layer 1
10
-34.869588
20
-12.725720
11
-34.708584
21
-13.158570
0
LINE
8
Layer 1
10
-34.708584
20
-13.158570
11
-34.512110
21
-13.648120
0
LINE
8
Layer 1
10
-34.512110
20
-13.648120
11
-34.315636
21
-14.137670
0
LINE
8
Layer 1
10
-34.315636
20
-14.137670
11
-34.108516
21
-14.612900
0
LINE
8
Layer 1
10
-34.108516
20
-14.612900
11
-33.901395
21
-15.088120
0
LINE
8
Layer 1
10
-33.901395
20
-15.088120
11
-33.742037
21
-15.432880
0
LINE
8
Layer 1
10
-33.742037
20
-15.432880
11
-33.582682
21
-15.777660
0
LINE
8
Layer 1
10
-33.582682
20
-15.777660
11
-33.245951
21
-16.450790
0
LINE
8
Layer 1
10
-33.245951
20
-16.450790
11
-32.909221
21
-17.123910
0
LINE
8
Layer 1
10
-32.909221
20
-17.123910
11
-32.627527
21
-17.637940
0
LINE
8
Layer 1
10
-32.627527
20
-17.637940
11
-32.345834
21
-18.151970
0
LINE
8
Layer 1
10
-32.345834
20
-18.151970
11
-32.131427
21
-18.519130
0
LINE
8
Layer 1
10
-32.131427
20
-18.519130
11
-31.917020
21
-18.886290
0
LINE
8
Layer 1
10
-31.917020
20
-18.886290
11
-31.646498
21
-19.326880
0
LINE
8
Layer 1
10
-31.646498
20
-19.326880
11
-31.375975
21
-19.767480
0
LINE
8
Layer 1
10
-31.375975
20
-19.767480
11
-31.076610
21
-20.224350
0
LINE
8
Layer 1
10
-31.076610
20
-20.224350
11
-30.777247
21
-20.681240
0
LINE
8
Layer 1
10
-30.777247
20
-20.681240
11
-30.489153
21
-21.093310
0
LINE
8
Layer 1
10
-30.489153
20
-21.093310
11
-30.201059
21
-21.505380
0
LINE
8
Layer 1
10
-30.201059
20
-21.505380
11
-29.780964
21
-22.068350
0
LINE
8
Layer 1
10
-29.780964
20
-22.068350
11
-29.360866
21
-22.631320
0
LINE
8
Layer 1
10
-29.360866
20
-22.631320
11
-29.047072
21
-23.022980
0
LINE
8
Layer 1
10
-29.047072
20
-23.022980
11
-28.733276
21
-23.414610
0
LINE
8
Layer 1
10
-28.733276
20
-23.414610
11
-28.487337
21
-23.708340
0
LINE
8
Layer 1
10
-28.487337
20
-23.708340
11
-28.241398
21
-24.002070
0
LINE
8
Layer 1
10
-28.241398
20
-24.002070
11
-27.919427
21
-24.369220
0
LINE
8
Layer 1
10
-27.919427
20
-24.369220
11
-27.597456
21
-24.736380
0
LINE
8
Layer 1
10
-27.597456
20
-24.736380
11
-27.269630
21
-25.091320
0
LINE
8
Layer 1
10
-27.269630
20
-25.091320
11
-26.941807
21
-25.446240
0
LINE
8
Layer 1
10
-26.941807
20
-25.446240
11
-26.440021
21
-25.956880
0
LINE
8
Layer 1
10
-26.440021
20
-25.956880
11
-25.938233
21
-26.467540
0
LINE
8
Layer 1
10
-25.938233
20
-26.467540
11
-25.460925
21
-26.914450
0
LINE
8
Layer 1
10
-25.460925
20
-26.914450
11
-24.983615
21
-27.361360
0
LINE
8
Layer 1
10
-24.983615
20
-27.361360
11
-24.616454
21
-27.686360
0
LINE
8
Layer 1
10
-24.616454
20
-27.686360
11
-24.249293
21
-28.011330
0
LINE
8
Layer 1
10
-24.249293
20
-28.011330
11
-23.759745
21
-28.419790
0
LINE
8
Layer 1
10
-23.759745
20
-28.419790
11
-23.270198
21
-28.828240
0
LINE
8
Layer 1
10
-23.270198
20
-28.828240
11
-22.878558
21
-29.133400
0
LINE
8
Layer 1
10
-22.878558
20
-29.133400
11
-22.486920
21
-29.438590
0
LINE
8
Layer 1
10
-22.486920
20
-29.438590
11
-22.242146
21
-29.622800
0
LINE
8
Layer 1
10
-22.242146
20
-29.622800
11
-21.997372
21
-29.807000
0
LINE
8
Layer 1
10
-21.997372
20
-29.807000
11
-21.569017
21
-30.113210
0
LINE
8
Layer 1
10
-21.569017
20
-30.113210
11
-21.140664
21
-30.419420
0
LINE
8
Layer 1
10
-21.140664
20
-30.419420
11
-20.687831
21
-30.724010
0
LINE
8
Layer 1
10
-20.687831
20
-30.724010
11
-20.235000
21
-31.028610
0
LINE
8
Layer 1
10
-20.235000
20
-31.028610
11
-19.898560
21
-31.241530
0
LINE
8
Layer 1
10
-19.898560
20
-31.241530
11
-19.562120
21
-31.454440
0
LINE
8
Layer 1
10
-19.562120
20
-31.454440
11
-19.164237
21
-31.695640
0
LINE
8
Layer 1
10
-19.164237
20
-31.695640
11
-18.766356
21
-31.936840
0
LINE
8
Layer 1
10
-18.766356
20
-31.936840
11
-18.399195
21
-32.145760
0
LINE
8
Layer 1
10
-18.399195
20
-32.145760
11
-18.032035
21
-32.354670
0
LINE
8
Layer 1
10
-18.032035
20
-32.354670
11
-17.591440
21
-32.594350
0
LINE
8
Layer 1
10
-17.591440
20
-32.594350
11
-17.150848
21
-32.834020
0
LINE
8
Layer 1
10
-17.150848
20
-32.834020
11
-16.404287
21
-33.203930
0
LINE
8
Layer 1
10
-16.404287
20
-33.203930
11
-15.657726
21
-33.573830
0
LINE
8
Layer 1
10
-15.657726
20
-33.573830
11
-15.067984
21
-33.835460
0
LINE
8
Layer 1
10
-15.067984
20
-33.835460
11
-14.478241
21
-34.097110
0
LINE
8
Layer 1
10
-14.478241
20
-34.097110
11
-14.113366
21
-34.246530
0
LINE
8
Layer 1
10
-14.113366
20
-34.246530
11
-13.748489
21
-34.395950
0
LINE
8
Layer 1
10
-13.748489
20
-34.395950
11
-13.283418
21
-34.575780
0
LINE
8
Layer 1
10
-13.283418
20
-34.575780
11
-12.818348
21
-34.755590
0
LINE
8
Layer 1
10
-12.818348
20
-34.755590
11
-12.267605
21
-34.950750
0
LINE
8
Layer 1
10
-12.267605
20
-34.950750
11
-11.716864
21
-35.145910
0
LINE
8
Layer 1
10
-11.716864
20
-35.145910
11
-11.245941
21
-35.296680
0
LINE
8
Layer 1
10
-11.245941
20
-35.296680
11
-10.775018
21
-35.447470
0
LINE
8
Layer 1
10
-10.775018
20
-35.447470
11
-10.132220
21
-35.631570
0
LINE
8
Layer 1
10
-10.132220
20
-35.631570
11
-9.489421
21
-35.815650
0
LINE
8
Layer 1
10
-9.489421
20
-35.815650
11
-8.865247
21
-35.970770
0
LINE
8
Layer 1
10
-8.865247
20
-35.970770
11
-8.241073
21
-36.125900
0
LINE
8
Layer 1
10
-8.241073
20
-36.125900
11
-7.714810
21
-36.238600
0
LINE
8
Layer 1
10
-7.714810
20
-36.238600
11
-7.188546
21
-36.351320
0
LINE
8
Layer 1
10
-7.188546
20
-36.351320
11
-6.674520
21
-36.447420
0
LINE
8
Layer 1
10
-6.674520
20
-36.447420
11
-6.160494
21
-36.543520
0
LINE
8
Layer 1
10
-6.160494
20
-36.543520
11
-5.592335
21
-36.631420
0
LINE
8
Layer 1
10
-5.592335
20
-36.631420
11
-5.024176
21
-36.719320
0
LINE
8
Layer 1
10
-5.024176
20
-36.719320
11
-4.441898
21
-36.791220
0
LINE
8
Layer 1
10
-4.441898
20
-36.791220
11
-3.859620
21
-36.863120
0
LINE
8
Layer 1
10
-3.859620
20
-36.863120
11
-3.651562
21
-36.885320
0
LINE
8
Layer 1
10
-3.651562
20
-36.885320
11
-3.443503
21
-36.907520
0
LINE
8
Layer 1
10
-3.443503
20
-36.907520
11
-3.388430
21
-36.911520
0
LINE
8
Layer 1
10
-3.388430
20
-36.911520
11
-3.333357
21
-36.915520
0
LINE
8
Layer 1
10
-3.333357
20
-36.915520
11
-3.332277
21
-36.897120
0
LINE
8
Layer 1
10
-3.332277
20
-36.897120
11
-3.332206
21
-36.894100
0
LINE
8
Layer 1
10
4.329234
20
-36.839000
11
4.976824
21
-36.765500
0
LINE
8
Layer 1
10
4.976824
20
-36.765500
11
5.576525
21
-36.678100
0
LINE
8
Layer 1
10
5.576525
20
-36.678100
11
6.176218
21
-36.590600
0
LINE
8
Layer 1
10
6.176218
20
-36.590600
11
6.763676
21
-36.483910
0
LINE
8
Layer 1
10
6.763676
20
-36.483910
11
7.351135
21
-36.377210
0
LINE
8
Layer 1
10
7.351135
20
-36.377210
11
7.889640
21
-36.263730
0
LINE
8
Layer 1
10
7.889640
20
-36.263730
11
8.428145
21
-36.150240
0
LINE
8
Layer 1
10
8.428145
20
-36.150240
11
8.880977
21
-36.041260
0
LINE
8
Layer 1
10
8.880977
20
-36.041260
11
9.333809
21
-35.932270
0
LINE
8
Layer 1
10
9.333809
20
-35.932270
11
9.749922
21
-35.820400
0
LINE
8
Layer 1
10
9.749922
20
-35.820400
11
10.166034
21
-35.708520
0
LINE
8
Layer 1
10
10.166034
20
-35.708520
11
10.631108
21
-35.573900
0
LINE
8
Layer 1
10
10.631108
20
-35.573900
11
11.096175
21
-35.439280
0
LINE
8
Layer 1
10
11.096175
20
-35.439280
11
11.769306
21
-35.218500
0
LINE
8
Layer 1
10
11.769306
20
-35.218500
11
12.442437
21
-34.997740
0
LINE
8
Layer 1
10
12.442437
20
-34.997740
11
13.035230
21
-34.779840
0
LINE
8
Layer 1
10
13.035230
20
-34.779840
11
13.628032
21
-34.561950
0
LINE
8
Layer 1
10
13.628032
20
-34.561950
11
14.075521
21
-34.381410
0
LINE
8
Layer 1
10
14.075521
20
-34.381410
11
14.523019
21
-34.200850
0
LINE
8
Layer 1
10
14.523019
20
-34.200850
11
14.875944
21
-34.049010
0
LINE
8
Layer 1
10
14.875944
20
-34.049010
11
15.228878
21
-33.897160
0
LINE
8
Layer 1
10
15.228878
20
-33.897160
11
15.622505
21
-33.718490
0
LINE
8
Layer 1
10
15.622505
20
-33.718490
11
16.016141
21
-33.539810
0
LINE
8
Layer 1
10
16.016141
20
-33.539810
11
16.493450
21
-33.309240
0
LINE
8
Layer 1
10
16.493450
20
-33.309240
11
16.970758
21
-33.078650
0
LINE
8
Layer 1
10
16.970758
20
-33.078650
11
17.497021
21
-32.801460
0
LINE
8
Layer 1
10
17.497021
20
-32.801460
11
18.023283
21
-32.524280
0
LINE
8
Layer 1
10
18.023283
20
-32.524280
11
18.489515
21
-32.261510
0
LINE
8
Layer 1
10
18.489515
20
-32.261510
11
18.955748
21
-31.998760
0
LINE
8
Layer 1
10
18.955748
20
-31.998760
11
19.395180
21
-31.734460
0
LINE
8
Layer 1
10
19.395180
20
-31.734460
11
19.834611
21
-31.470160
0
LINE
8
Layer 1
10
19.834611
20
-31.470160
11
20.311920
21
-31.164200
0
LINE
8
Layer 1
10
20.311920
20
-31.164200
11
20.789228
21
-30.858270
0
LINE
8
Layer 1
10
20.789228
20
-30.858270
11
21.205350
21
-30.573170
0
LINE
8
Layer 1
10
21.205350
20
-30.573170
11
21.621463
21
-30.288090
0
LINE
8
Layer 1
10
21.621463
20
-30.288090
11
21.939668
21
-30.059540
0
LINE
8
Layer 1
10
21.939668
20
-30.059540
11
22.257874
21
-29.831020
0
LINE
8
Layer 1
10
22.257874
20
-29.831020
11
22.710707
21
-29.488170
0
LINE
8
Layer 1
10
22.710707
20
-29.488170
11
23.163538
21
-29.145330
0
LINE
8
Layer 1
10
23.163538
20
-29.145330
11
23.576891
21
-28.813790
0
LINE
8
Layer 1
10
23.576891
20
-28.813790
11
23.990244
21
-28.482260
0
LINE
8
Layer 1
10
23.990244
20
-28.482260
11
24.421359
21
-28.111980
0
LINE
8
Layer 1
10
24.421359
20
-28.111980
11
24.852475
21
-27.741700
0
LINE
8
Layer 1
10
24.852475
20
-27.741700
11
25.244119
21
-27.388910
0
LINE
8
Layer 1
10
25.244119
20
-27.388910
11
25.635756
21
-27.036120
0
LINE
8
Layer 1
10
25.635756
20
-27.036120
11
26.318388
21
-26.362910
0
LINE
8
Layer 1
10
26.318388
20
-26.362910
11
27.001012
21
-25.689710
0
LINE
8
Layer 1
10
27.001012
20
-25.689710
11
27.368273
21
-25.298760
0
LINE
8
Layer 1
10
27.368273
20
-25.298760
11
27.735534
21
-24.907790
0
LINE
8
Layer 1
10
27.735534
20
-24.907790
11
28.086237
21
-24.513790
0
LINE
8
Layer 1
10
28.086237
20
-24.513790
11
28.436939
21
-24.119780
0
LINE
8
Layer 1
10
28.436939
20
-24.119780
11
28.843762
21
-23.631920
0
LINE
8
Layer 1
10
28.843762
20
-23.631920
11
29.250586
21
-23.144070
0
LINE
8
Layer 1
10
29.250586
20
-23.144070
11
29.646139
21
-22.634340
0
LINE
8
Layer 1
10
29.646139
20
-22.634340
11
30.041684
21
-22.124610
0
LINE
8
Layer 1
10
30.041684
20
-22.124610
11
30.415899
21
-21.606550
0
LINE
8
Layer 1
10
30.415899
20
-21.606550
11
30.790107
21
-21.088480
0
LINE
8
Layer 1
10
30.790107
20
-21.088480
11
31.128843
21
-20.586430
0
LINE
8
Layer 1
10
31.128843
20
-20.586430
11
31.467590
21
-20.084390
0
LINE
8
Layer 1
10
31.467590
20
-20.084390
11
31.796733
21
-19.558130
0
LINE
8
Layer 1
10
31.796733
20
-19.558130
11
32.125886
21
-19.031860
0
LINE
8
Layer 1
10
32.125886
20
-19.031860
11
32.402519
21
-18.557950
0
LINE
8
Layer 1
10
32.402519
20
-18.557950
11
32.679162
21
-18.084030
0
LINE
8
Layer 1
10
32.679162
20
-18.084030
11
32.922826
21
-17.640040
0
LINE
8
Layer 1
10
32.922826
20
-17.640040
11
33.166491
21
-17.196060
0
LINE
8
Layer 1
10
33.166491
20
-17.196060
11
33.587336
21
-16.351590
0
LINE
8
Layer 1
10
33.587336
20
-16.351590
11
34.008181
21
-15.507130
0
LINE
8
Layer 1
10
34.008181
20
-15.507130
11
34.273718
21
-14.907420
0
LINE
8
Layer 1
10
34.273718
20
-14.907420
11
34.539267
21
-14.307730
0
LINE
8
Layer 1
10
34.539267
20
-14.307730
11
34.772023
21
-13.732510
0
LINE
8
Layer 1
10
34.772023
20
-13.732510
11
35.004787
21
-13.157290
0
LINE
8
Layer 1
10
35.004787
20
-13.157290
11
35.206564
21
-12.606550
0
LINE
8
Layer 1
10
35.206564
20
-12.606550
11
35.408350
21
-12.055810
0
LINE
8
Layer 1
10
35.408350
20
-12.055810
11
35.632604
21
-11.375200
0
LINE
8
Layer 1
10
35.632604
20
-11.375200
11
35.856858
21
-10.694580
0
LINE
8
Layer 1
10
35.856858
20
-10.694580
11
36.040345
21
-10.056610
0
LINE
8
Layer 1
10
36.040345
20
-10.056610
11
36.223832
21
-9.418660
0
LINE
8
Layer 1
10
36.223832
20
-9.418660
11
36.380258
21
-8.791270
0
LINE
8
Layer 1
10
36.380258
20
-8.791270
11
36.536685
21
-8.163900
0
LINE
8
Layer 1
10
36.536685
20
-8.163900
11
36.601975
21
-7.870160
0
LINE
8
Layer 1
10
36.601975
20
-7.870160
11
36.667265
21
-7.576450
0
LINE
8
Layer 1
10
36.667265
20
-7.576450
11
36.773090
21
-7.050190
0
LINE
8
Layer 1
10
36.773090
20
-7.050190
11
36.878915
21
-6.523930
0
LINE
8
Layer 1
10
36.878915
20
-6.523930
11
36.977955
21
-5.936460
0
LINE
8
Layer 1
10
36.977955
20
-5.936460
11
37.077015
21
-5.349010
0
LINE
8
Layer 1
10
37.077015
20
-5.349010
11
37.150915
21
-4.810500
0
LINE
8
Layer 1
10
37.150915
20
-4.810500
11
37.224815
21
-4.272000
0
LINE
8
Layer 1
10
37.224815
20
-4.272000
11
37.276295
21
-3.811010
0
LINE
8
Layer 1
10
37.276295
20
-3.811010
11
37.327775
21
-3.350020
0
LINE
8
Layer 1
10
37.327775
20
-3.350020
11
37.314255
21
-3.336520
0
LINE
8
Layer 1
10
37.314255
20
-3.336520
11
37.300735
21
-3.323020
0
LINE
8
Layer 1
10
37.300735
20
-3.323020
11
28.160065
21
-4.935740
0
LINE
8
Layer 1
10
28.160065
20
-4.935740
11
19.019395
21
-6.548460
0
LINE
8
Layer 1
10
19.019395
20
-6.548460
11
19.027695
21
-6.562560
0
LINE
8
Layer 1
10
19.027695
20
-6.562560
11
19.035995
21
-6.576660
0
LINE
8
Layer 1
10
19.035995
20
-6.576660
11
21.236845
21
-7.979100
0
LINE
8
Layer 1
10
21.236845
20
-7.979100
11
23.437695
21
-9.381520
0
LINE
8
Layer 1
10
23.437695
20
-9.381520
11
23.387225
21
-9.501010
0
LINE
8
Layer 1
10
23.387225
20
-9.501010
11
23.336745
21
-9.620490
0
LINE
8
Layer 1
10
23.336745
20
-9.620490
11
23.313200
21
-9.620550
0
LINE
8
Layer 1
10
23.313200
20
-9.620550
11
23.289700
21
-9.620550
0
LINE
8
Layer 1
10
23.289700
20
-9.620550
11
18.483680
21
-8.555560
0
LINE
8
Layer 1
10
18.483680
20
-8.555560
11
13.677660
21
-7.490570
0
LINE
8
Layer 1
10
13.677660
20
-7.490570
11
13.285357
21
-7.560870
0
LINE
8
Layer 1
10
13.285357
20
-7.560870
11
12.893045
21
-7.631170
0
LINE
8
Layer 1
10
12.893045
20
-7.631170
11
12.879895
21
-7.644270
0
LINE
8
Layer 1
10
12.879895
20
-7.644270
11
12.866745
21
-7.657370
0
LINE
8
Layer 1
10
12.866745
20
-7.657370
11
18.414245
21
-15.582280
0
LINE
8
Layer 1
10
18.414245
20
-15.582280
11
23.961745
21
-23.507180
0
LINE
8
Layer 1
10
23.961745
20
-23.507180
11
23.866955
21
-23.601880
0
LINE
8
Layer 1
10
23.866955
20
-23.601880
11
23.772165
21
-23.696680
0
LINE
8
Layer 1
10
23.772165
20
-23.696680
11
15.846215
21
-18.148400
0
LINE
8
Layer 1
10
15.846215
20
-18.148400
11
7.920265
21
-12.600140
0
LINE
8
Layer 1
10
7.920265
20
-12.600140
11
7.903038
21
-12.628040
0
LINE
8
Layer 1
10
7.903038
20
-12.628040
11
7.885811
21
-12.656040
0
LINE
8
Layer 1
10
7.885811
20
-12.656040
11
7.820052
21
-13.033790
0
LINE
8
Layer 1
10
7.820052
20
-13.033790
11
7.754302
21
-13.411530
0
LINE
8
Layer 1
10
7.754302
20
-13.411530
11
8.808662
21
-18.167640
0
LINE
8
Layer 1
10
8.808662
20
-18.167640
11
9.863022
21
-22.923760
0
LINE
8
Layer 1
10
9.863022
20
-22.923760
11
9.875712
21
-22.997460
0
LINE
8
Layer 1
10
9.875712
20
-22.997460
11
9.888402
21
-23.071160
0
LINE
8
Layer 1
10
9.888402
20
-23.071160
11
9.766760
21
-23.122460
0
LINE
8
Layer 1
10
9.766760
20
-23.122460
11
9.645118
21
-23.173760
0
LINE
8
Layer 1
10
9.645118
20
-23.173760
11
8.243498
21
-20.973510
0
LINE
8
Layer 1
10
8.243498
20
-20.973510
11
6.841878
21
-18.773270
0
LINE
8
Layer 1
10
6.841878
20
-18.773270
11
6.826509
21
-18.763270
0
LINE
8
Layer 1
10
6.826509
20
-18.763270
11
6.811130
21
-18.753270
0
LINE
8
Layer 1
10
6.811130
20
-18.753270
11
5.213350
21
-27.813940
0
LINE
8
Layer 1
10
5.213350
20
-27.813940
11
3.615570
21
-36.874620
0
LINE
8
Layer 1
10
3.615570
20
-36.874620
11
3.616524
21
-36.893020
0
LINE
8
Layer 1
10
3.616524
20
-36.893020
11
3.617478
21
-36.911420
0
LINE
8
Layer 1
10
3.617478
20
-36.911420
11
3.649170
21
-36.911400
0
LINE
8
Layer 1
10
3.649170
20
-36.911400
11
3.680850
21
-36.911400
0
LINE
8
Layer 1
10
3.680850
20
-36.911400
11
4.328494
21
-36.838300
0
LINE
8
Layer 1
10
4.328494
20
-36.838300
11
4.329234
21
-36.839000
0
LINE
8
Layer 1
10
15.613234
20
-15.532500
11
8.625974
21
-8.545210
0
LINE
8
Layer 1
10
8.625974
20
-8.545210
11
8.618544
21
-8.553210
0
LINE
8
Layer 1
10
8.618544
20
-8.553210
11
8.611114
21
-8.561210
0
LINE
8
Layer 1
10
8.611114
20
-8.561210
11
8.282998
21
-10.419000
0
LINE
8
Layer 1
10
8.282998
20
-10.419000
11
7.954875
21
-12.276770
0
LINE
8
Layer 1
10
7.954875
20
-12.276770
11
7.971359
21
-12.293470
0
LINE
8
Layer 1
10
7.971359
20
-12.293470
11
7.987843
21
-12.310170
0
LINE
8
Layer 1
10
7.987843
20
-12.310170
11
15.281243
21
-17.415280
0
LINE
8
Layer 1
10
15.281243
20
-17.415280
11
22.574643
21
-22.520370
0
LINE
8
Layer 1
10
22.574643
20
-22.520370
11
22.587700
21
-22.520400
0
LINE
8
Layer 1
10
22.587700
20
-22.520400
11
22.600800
21
-22.520400
0
LINE
8
Layer 1
10
22.600800
20
-22.520400
11
15.613234
21
-15.532500
0
LINE
8
Layer 1
10
-8.532066
20
-8.354130
11
-8.539596
21
-8.346130
0
LINE
8
Layer 1
10
-8.539596
20
-8.346130
11
-10.348496
21
-8.028080
0
LINE
8
Layer 1
10
-10.348496
20
-8.028080
11
-12.157396
21
-7.710030
0
LINE
8
Layer 1
10
-12.157396
20
-7.710030
11
-12.211136
21
-7.697930
0
LINE
8
Layer 1
10
-12.211136
20
-7.697930
11
-12.264876
21
-7.685830
0
LINE
8
Layer 1
10
-12.264876
20
-7.685830
11
-17.365576
21
-14.974100
0
LINE
8
Layer 1
10
-17.365576
20
-14.974100
11
-22.466276
21
-22.262380
0
LINE
8
Layer 1
10
-22.466276
20
-22.262380
11
-22.485786
21
-22.299180
0
LINE
8
Layer 1
10
-22.485786
20
-22.299180
11
-22.505296
21
-22.335880
0
LINE
8
Layer 1
10
-22.505296
20
-22.335880
11
-15.514916
21
-15.348600
0
LINE
8
Layer 1
10
-15.514916
20
-15.348600
11
-8.524536
21
-8.361340
0
LINE
8
Layer 1
10
-8.524536
20
-8.361340
11
-8.532066
21
-8.354130
0
LINE
8
Layer 1
10
8.070734
20
-19.372730
11
7.138899
21
-17.122470
0
LINE
8
Layer 1
10
7.138899
20
-17.122470
11
7.121956
21
-17.104670
0
LINE
8
Layer 1
10
7.121956
20
-17.104670
11
7.105013
21
-17.086870
0
LINE
8
Layer 1
10
7.105013
20
-17.086870
11
6.997984
21
-17.698430
0
LINE
8
Layer 1
10
6.997984
20
-17.698430
11
6.890947
21
-18.309980
0
LINE
8
Layer 1
10
6.890947
20
-18.309980
11
6.912984
21
-18.357980
0
LINE
8
Layer 1
10
6.912984
20
-18.357980
11
6.935021
21
-18.405980
0
LINE
8
Layer 1
10
6.935021
20
-18.405980
11
7.963071
21
-20.019700
0
LINE
8
Layer 1
10
7.963071
20
-20.019700
11
8.991131
21
-21.633410
0
LINE
8
Layer 1
10
8.991131
20
-21.633410
11
8.996701
21
-21.627410
0
LINE
8
Layer 1
10
8.996701
20
-21.627410
11
9.002271
21
-21.621410
0
LINE
8
Layer 1
10
9.002271
20
-21.621410
11
8.070734
21
-19.372730
0
LINE
8
Layer 1
10
-7.925866
20
-19.003300
11
-6.931473
21
-16.600600
0
LINE
8
Layer 1
10
-6.931473
20
-16.600600
11
-6.930549
21
-16.543400
0
LINE
8
Layer 1
10
-6.930549
20
-16.543400
11
-6.929624
21
-16.486100
0
LINE
8
Layer 1
10
-6.929624
20
-16.486100
11
-7.132007
21
-15.330300
0
LINE
8
Layer 1
10
-7.132007
20
-15.330300
11
-7.334391
21
-14.174490
0
LINE
8
Layer 1
10
-7.334391
20
-14.174490
11
-7.350142
21
-14.192090
0
LINE
8
Layer 1
10
-7.350142
20
-14.192090
11
-7.365893
21
-14.209690
0
LINE
8
Layer 1
10
-7.365893
20
-14.209690
11
-8.164491
21
-17.820190
0
LINE
8
Layer 1
10
-8.164491
20
-17.820190
11
-8.963087
21
-21.430700
0
LINE
8
Layer 1
10
-8.963087
20
-21.430700
11
-8.962354
21
-21.455100
0
LINE
8
Layer 1
10
-8.962354
20
-21.455100
11
-8.961621
21
-21.479400
0
LINE
8
Layer 1
10
-8.961621
20
-21.479400
11
-8.940943
21
-21.442700
0
LINE
8
Layer 1
10
-8.940943
20
-21.442700
11
-8.920265
21
-21.406000
0
LINE
8
Layer 1
10
-8.920265
20
-21.406000
11
-7.925870
21
-19.003280
0
LINE
8
Layer 1
10
-7.925870
20
-19.003280
11
-7.925866
21
-19.003300
0
LINE
8
Layer 1
10
21.707134
20
-8.961200
11
21.670464
21
-8.940200
0
LINE
8
Layer 1
10
21.670464
20
-8.940200
11
19.269294
21
-7.946130
0
LINE
8
Layer 1
10
19.269294
20
-7.946130
11
16.868114
21
-6.952040
0
LINE
8
Layer 1
10
16.868114
20
-6.952040
11
16.784854
21
-6.954040
0
LINE
8
Layer 1
10
16.784854
20
-6.954040
11
16.701594
21
-6.956040
0
LINE
8
Layer 1
10
16.701594
20
-6.956040
11
15.563384
21
-7.160510
0
LINE
8
Layer 1
10
15.563384
20
-7.160510
11
14.425184
21
-7.364970
0
LINE
8
Layer 1
10
14.425184
20
-7.364970
11
14.437404
21
-7.369970
0
LINE
8
Layer 1
10
14.437404
20
-7.369970
11
14.449634
21
-7.374970
0
LINE
8
Layer 1
10
14.449634
20
-7.374970
11
18.047814
21
-8.177730
0
LINE
8
Layer 1
10
18.047814
20
-8.177730
11
21.645994
21
-8.980500
0
LINE
8
Layer 1
10
21.645994
20
-8.980500
11
21.694984
21
-8.982500
0
LINE
8
Layer 1
10
21.694984
20
-8.982500
11
21.743974
21
-8.984500
0
LINE
8
Layer 1
10
21.743974
20
-8.984500
11
21.707304
21
-8.963500
0
LINE
8
Layer 1
10
21.707304
20
-8.963500
11
21.707134
21
-8.961200
0
LINE
8
Layer 1
10
-19.329266
20
-7.797910
11
-17.101826
21
-6.875410
0
LINE
8
Layer 1
10
-17.101826
20
-6.875410
11
-17.084046
21
-6.858010
0
LINE
8
Layer 1
10
-17.084046
20
-6.858010
11
-17.066266
21
-6.840610
0
LINE
8
Layer 1
10
-17.066266
20
-6.840610
11
-17.675835
21
-6.733920
0
LINE
8
Layer 1
10
-17.675835
20
-6.733920
11
-18.285406
21
-6.627240
0
LINE
8
Layer 1
10
-18.285406
20
-6.627240
11
-18.322506
21
-6.641540
0
LINE
8
Layer 1
10
-18.322506
20
-6.641540
11
-18.359606
21
-6.655840
0
LINE
8
Layer 1
10
-18.359606
20
-6.655840
11
-19.884726
21
-7.628070
0
LINE
8
Layer 1
10
-19.884726
20
-7.628070
11
-21.409846
21
-8.600310
0
LINE
8
Layer 1
10
-21.409846
20
-8.600310
11
-21.519995
21
-8.672810
0
LINE
8
Layer 1
10
-21.519995
20
-8.672810
11
-21.630142
21
-8.745310
0
LINE
8
Layer 1
10
-21.630142
20
-8.745310
11
-21.593432
21
-8.732910
0
LINE
8
Layer 1
10
-21.593432
20
-8.732910
11
-21.556712
21
-8.720510
0
LINE
8
Layer 1
10
-21.556712
20
-8.720510
11
-19.329266
21
-7.797910
0
LINE
8
Layer 1
10
31.583734
20
-4.053040
11
54.298734
21
-0.046500
0
LINE
8
Layer 1
10
54.298734
20
-0.046500
11
54.347724
21
-0.025200
0
LINE
8
Layer 1
10
54.347724
20
-0.025200
11
54.396714
21
-0.003900
0
LINE
8
Layer 1
10
54.396714
20
-0.003900
11
27.526614
21
-0.001900
0
LINE
8
Layer 1
10
27.526614
20
-0.001900
11
0.656514
21
0.000100
0
LINE
8
Layer 1
10
0.656514
20
0.000100
11
0.656653
21
-0.018440
0
LINE
8
Layer 1
10
0.656653
20
-0.018440
11
0.656653
21
-0.036840
0
LINE
8
Layer 1
10
0.656653
20
-0.036840
11
4.677053
21
-4.058890
0
LINE
8
Layer 1
10
4.677053
20
-4.058890
11
8.697463
21
-8.080940
0
LINE
8
Layer 1
10
8.697463
20
-8.080940
11
8.783127
21
-8.070140
0
LINE
8
Layer 1
10
8.783127
20
-8.070140
11
8.868790
21
-8.059240
0
LINE
8
Layer 1
10
8.868790
20
-8.059240
11
31.583734
21
-4.053040
0
LINE
8
Layer 1
10
-0.371466
20
0.262670
11
-0.371477
21
0.280930
0
LINE
8
Layer 1
10
-0.371477
20
0.280930
11
-4.396187
21
4.305590
0
LINE
8
Layer 1
10
-4.396187
20
4.305590
11
-8.420907
21
8.330250
0
LINE
8
Layer 1
10
-8.420907
20
8.330250
11
-31.205107
21
4.310560
0
LINE
8
Layer 1
10
-31.205107
20
4.310560
11
-53.989307
21
0.290880
0
LINE
8
Layer 1
10
-53.989307
20
0.290880
11
-54.050507
21
0.269580
0
LINE
8
Layer 1
10
-54.050507
20
0.269580
11
-54.111697
21
0.248180
0
LINE
8
Layer 1
10
-54.111697
20
0.248180
11
-27.241597
21
0.246180
0
LINE
8
Layer 1
10
-27.241597
20
0.246180
11
-0.371497
21
0.244180
0
LINE
8
Layer 1
10
-0.371497
20
0.244180
11
-0.371484
21
0.262580
0
LINE
8
Layer 1
10
-0.371484
20
0.262580
11
-0.371466
21
0.262670
0
LINE
8
Layer 1
10
4.326374
20
4.660640
11
8.351034
21
8.685360
0
LINE
8
Layer 1
10
8.351034
20
8.685360
11
4.331354
21
31.469560
0
LINE
8
Layer 1
10
4.331354
20
31.469560
11
0.311664
21
54.253760
0
LINE
8
Layer 1
10
0.311664
20
54.253760
11
0.290272
21
54.314960
0
LINE
8
Layer 1
10
0.290272
20
54.314960
11
0.268880
21
54.376160
0
LINE
8
Layer 1
10
0.268880
20
54.376160
11
0.267022
21
27.506160
0
LINE
8
Layer 1
10
0.267022
20
27.506160
11
0.265164
21
0.636060
0
LINE
8
Layer 1
10
0.265164
20
0.636060
11
0.283586
21
0.635810
0
LINE
8
Layer 1
10
0.283586
20
0.635810
11
0.302015
21
0.635810
0
LINE
8
Layer 1
10
0.302015
20
0.635810
11
4.326374
21
4.660640
0
LINE
8
Layer 1
10
-27.584926
20
5.229240
11
-18.730936
21
6.791650
0
LINE
8
Layer 1
10
-18.730936
20
6.791650
11
-18.760836
21
6.819950
0
LINE
8
Layer 1
10
-18.760836
20
6.819950
11
-18.790736
21
6.848350
0
LINE
8
Layer 1
10
-18.790736
20
6.848350
11
-20.924956
21
8.207600
0
LINE
8
Layer 1
10
-20.924956
20
8.207600
11
-23.059176
21
9.566870
0
LINE
8
Layer 1
10
-23.059176
20
9.566870
11
-23.107556
21
9.592770
0
LINE
8
Layer 1
10
-23.107556
20
9.592770
11
-23.155936
21
9.618670
0
LINE
8
Layer 1
10
-23.155936
20
9.618670
11
-23.104136
21
9.741280
0
LINE
8
Layer 1
10
-23.104136
20
9.741280
11
-23.052336
21
9.863880
0
LINE
8
Layer 1
10
-23.052336
20
9.863880
11
-23.025800
21
9.863740
0
LINE
8
Layer 1
10
-23.025800
20
9.863740
11
-22.999300
21
9.863740
0
LINE
8
Layer 1
10
-22.999300
20
9.863740
11
-18.194420
21
8.799030
0
LINE
8
Layer 1
10
-18.194420
20
8.799030
11
-13.389540
21
7.734330
0
LINE
8
Layer 1
10
-13.389540
20
7.734330
11
-13.012385
21
7.800030
0
LINE
8
Layer 1
10
-13.012385
20
7.800030
11
-12.635230
21
7.865730
0
LINE
8
Layer 1
10
-12.635230
20
7.865730
11
-12.608170
21
7.882430
0
LINE
8
Layer 1
10
-12.608170
20
7.882430
11
-12.581110
21
7.899130
0
LINE
8
Layer 1
10
-12.581110
20
7.899130
11
-18.129220
21
15.824910
0
LINE
8
Layer 1
10
-18.129220
20
15.824910
11
-23.677330
21
23.750700
0
LINE
8
Layer 1
10
-23.677330
20
23.750700
11
-23.581840
21
23.846100
0
LINE
8
Layer 1
10
-23.581840
20
23.846100
11
-23.486360
21
23.941600
0
LINE
8
Layer 1
10
-23.486360
20
23.941600
11
-15.560580
21
18.393500
0
LINE
8
Layer 1
10
-15.560580
20
18.393500
11
-7.634800
21
12.845390
0
LINE
8
Layer 1
10
-7.634800
20
12.845390
11
-7.618072
21
12.872390
0
LINE
8
Layer 1
10
-7.618072
20
12.872390
11
-7.601344
21
12.899490
0
LINE
8
Layer 1
10
-7.601344
20
12.899490
11
-7.535614
21
13.277240
0
LINE
8
Layer 1
10
-7.535614
20
13.277240
11
-7.469874
21
13.654980
0
LINE
8
Layer 1
10
-7.469874
20
13.654980
11
-8.524234
21
18.411100
0
LINE
8
Layer 1
10
-8.524234
20
18.411100
11
-9.578594
21
23.167220
0
LINE
8
Layer 1
10
-9.578594
20
23.167220
11
-9.591314
21
23.240920
0
LINE
8
Layer 1
10
-9.591314
20
23.240920
11
-9.604014
21
23.314620
0
LINE
8
Layer 1
10
-9.604014
20
23.314620
11
-9.482374
21
23.365920
0
LINE
8
Layer 1
10
-9.482374
20
23.365920
11
-9.360732
21
23.417220
0
LINE
8
Layer 1
10
-9.360732
20
23.417220
11
-7.959112
21
21.216970
0
LINE
8
Layer 1
10
-7.959112
20
21.216970
11
-6.557492
21
19.016720
0
LINE
8
Layer 1
10
-6.557492
20
19.016720
11
-6.542123
21
19.006720
0
LINE
8
Layer 1
10
-6.542123
20
19.006720
11
-6.526754
21
18.996720
0
LINE
8
Layer 1
10
-6.526754
20
18.996720
11
-4.962334
21
27.861570
0
LINE
8
Layer 1
10
-4.962334
20
27.861570
11
-3.397914
21
36.726430
0
LINE
8
Layer 1
10
-3.397914
20
36.726430
11
-3.331969
21
37.101760
0
LINE
8
Layer 1
10
-3.331969
20
37.101760
11
-3.266024
21
37.477080
0
LINE
8
Layer 1
10
-3.266024
20
37.477080
11
-3.403686
21
37.462180
0
LINE
8
Layer 1
10
-3.403686
20
37.462180
11
-3.541346
21
37.447280
0
LINE
8
Layer 1
10
-3.541346
20
37.447280
11
-3.994178
21
37.397680
0
LINE
8
Layer 1
10
-3.994178
20
37.397680
11
-4.447009
21
37.348080
0
LINE
8
Layer 1
10
-4.447009
20
37.348080
11
-4.899841
21
37.286980
0
LINE
8
Layer 1
10
-4.899841
20
37.286980
11
-5.352673
21
37.225880
0
LINE
8
Layer 1
10
-5.352673
20
37.225880
11
-5.805505
21
37.151980
0
LINE
8
Layer 1
10
-5.805505
20
37.151980
11
-6.258336
21
37.078080
0
LINE
8
Layer 1
10
-6.258336
20
37.078080
11
-6.711168
21
36.993180
0
LINE
8
Layer 1
10
-6.711168
20
36.993180
11
-7.164000
21
36.908280
0
LINE
8
Layer 1
10
-7.164000
20
36.908280
11
-7.690263
21
36.796290
0
LINE
8
Layer 1
10
-7.690263
20
36.796290
11
-8.216528
21
36.684300
0
LINE
8
Layer 1
10
-8.216528
20
36.684300
11
-8.901896
21
36.513470
0
LINE
8
Layer 1
10
-8.901896
20
36.513470
11
-9.587263
21
36.342650
0
LINE
8
Layer 1
10
-9.587263
20
36.342650
11
-10.211437
21
36.162520
0
LINE
8
Layer 1
10
-10.211437
20
36.162520
11
-10.835610
21
35.982380
0
LINE
8
Layer 1
10
-10.835610
20
35.982380
11
-11.374115
21
35.806930
0
LINE
8
Layer 1
10
-11.374115
20
35.806930
11
-11.912617
21
35.631480
0
LINE
8
Layer 1
10
-11.912617
20
35.631480
11
-12.426641
21
35.448000
0
LINE
8
Layer 1
10
-12.426641
20
35.448000
11
-12.940667
21
35.264520
0
LINE
8
Layer 1
10
-12.940667
20
35.264520
11
-13.515886
21
35.037480
0
LINE
8
Layer 1
10
-13.515886
20
35.037480
11
-14.091106
21
34.810440
0
LINE
8
Layer 1
10
-14.091106
20
34.810440
11
-14.409311
21
34.675690
0
LINE
8
Layer 1
10
-14.409311
20
34.675690
11
-14.727519
21
34.540930
0
LINE
8
Layer 1
10
-14.727519
20
34.540930
11
-15.057963
21
34.393810
0
LINE
8
Layer 1
10
-15.057963
20
34.393810
11
-15.388408
21
34.246690
0
LINE
8
Layer 1
10
-15.388408
20
34.246690
11
-15.914671
21
33.997940
0
LINE
8
Layer 1
10
-15.914671
20
33.997940
11
-16.440937
21
33.749210
0
LINE
8
Layer 1
10
-16.440937
20
33.749210
11
-16.942723
21
33.489980
0
LINE
8
Layer 1
10
-16.942723
20
33.489980
11
-17.444509
21
33.230780
0
LINE
8
Layer 1
10
-17.444509
20
33.230780
11
-17.909580
21
32.973290
0
LINE
8
Layer 1
10
-17.909580
20
32.973290
11
-18.374651
21
32.715810
0
LINE
8
Layer 1
10
-18.374651
20
32.715810
11
-18.790766
21
32.471370
0
LINE
8
Layer 1
10
-18.790766
20
32.471370
11
-19.206882
21
32.226940
0
LINE
8
Layer 1
10
-19.206882
20
32.226940
11
-19.561804
21
32.007090
0
LINE
8
Layer 1
10
-19.561804
20
32.007090
11
-19.916726
21
31.787270
0
LINE
8
Layer 1
10
-19.916726
20
31.787270
11
-20.479707
21
31.414520
0
LINE
8
Layer 1
10
-20.479707
20
31.414520
11
-21.042687
21
31.041760
0
LINE
8
Layer 1
10
-21.042687
20
31.041760
11
-21.532234
21
30.692410
0
LINE
8
Layer 1
10
-21.532234
20
30.692410
11
-22.021783
21
30.343050
0
LINE
8
Layer 1
10
-22.021783
20
30.343050
11
-22.425660
21
30.035920
0
LINE
8
Layer 1
10
-22.425660
20
30.035920
11
-22.829537
21
29.728800
0
LINE
8
Layer 1
10
-22.829537
20
29.728800
11
-23.196699
21
29.434930
0
LINE
8
Layer 1
10
-23.196699
20
29.434930
11
-23.563860
21
29.141070
0
LINE
8
Layer 1
10
-23.563860
20
29.141070
11
-23.931020
21
28.831060
0
LINE
8
Layer 1
10
-23.931020
20
28.831060
11
-24.298181
21
28.521070
0
LINE
8
Layer 1
10
-24.298181
20
28.521070
11
-24.677580
21
28.184160
0
LINE
8
Layer 1
10
-24.677580
20
28.184160
11
-25.056980
21
27.847250
0
LINE
8
Layer 1
10
-25.056980
20
27.847250
11
-25.617635
21
27.317680
0
LINE
8
Layer 1
10
-25.617635
20
27.317680
11
-26.178293
21
26.788090
0
LINE
8
Layer 1
10
-26.178293
20
26.788090
11
-26.706880
21
26.236990
0
LINE
8
Layer 1
10
-26.706880
20
26.236990
11
-27.235469
21
25.685870
0
LINE
8
Layer 1
10
-27.235469
20
25.685870
11
-27.631173
21
25.245650
0
LINE
8
Layer 1
10
-27.631173
20
25.245650
11
-28.026879
21
24.805430
0
LINE
8
Layer 1
10
-28.026879
20
24.805430
11
-28.337831
21
24.438260
0
LINE
8
Layer 1
10
-28.337831
20
24.438260
11
-28.648782
21
24.071110
0
LINE
8
Layer 1
10
-28.648782
20
24.071110
11
-28.984236
21
23.653980
0
LINE
8
Layer 1
10
-28.984236
20
23.653980
11
-29.319686
21
23.236830
0
LINE
8
Layer 1
10
-29.319686
20
23.236830
11
-29.686463
21
22.748310
0
LINE
8
Layer 1
10
-29.686463
20
22.748310
11
-30.053237
21
22.259780
0
LINE
8
Layer 1
10
-30.053237
20
22.259780
11
-30.322850
21
21.880380
0
LINE
8
Layer 1
10
-30.322850
20
21.880380
11
-30.592461
21
21.500970
0
LINE
8
Layer 1
10
-30.592461
20
21.500970
11
-30.935238
21
20.986940
0
LINE
8
Layer 1
10
-30.935238
20
20.986940
11
-31.278016
21
20.472920
0
LINE
8
Layer 1
10
-31.278016
20
20.472920
11
-31.560739
21
20.020090
0
LINE
8
Layer 1
10
-31.560739
20
20.020090
11
-31.843461
21
19.567270
0
LINE
8
Layer 1
10
-31.843461
20
19.567270
11
-32.148719
21
19.040350
0
LINE
8
Layer 1
10
-32.148719
20
19.040350
11
-32.453978
21
18.513450
0
LINE
8
Layer 1
10
-32.453978
20
18.513450
11
-32.711678
21
18.036780
0
LINE
8
Layer 1
10
-32.711678
20
18.036780
11
-32.969377
21
17.560110
0
LINE
8
Layer 1
10
-32.969377
20
17.560110
11
-33.257169
21
16.984900
0
LINE
8
Layer 1
10
-33.257169
20
16.984900
11
-33.544960
21
16.409670
0
LINE
8
Layer 1
10
-33.544960
20
16.409670
11
-33.776345
21
15.907880
0
LINE
8
Layer 1
10
-33.776345
20
15.907880
11
-34.007730
21
15.406100
0
LINE
8
Layer 1
10
-34.007730
20
15.406100
11
-34.211110
21
14.927960
0
LINE
8
Layer 1
10
-34.211110
20
14.927960
11
-34.414488
21
14.449810
0
LINE
8
Layer 1
10
-34.414488
20
14.449810
11
-34.599754
21
13.981210
0
LINE
8
Layer 1
10
-34.599754
20
13.981210
11
-34.785018
21
13.512610
0
LINE
8
Layer 1
10
-34.785018
20
13.512610
11
-34.991063
21
12.941750
0
LINE
8
Layer 1
10
-34.991063
20
12.941750
11
-35.197108
21
12.370900
0
LINE
8
Layer 1
10
-35.197108
20
12.370900
11
-35.345318
21
11.918070
0
LINE
8
Layer 1
10
-35.345318
20
11.918070
11
-35.493530
21
11.465240
0
LINE
8
Layer 1
10
-35.493530
20
11.465240
11
-35.643322
21
10.963460
0
LINE
8
Layer 1
10
-35.643322
20
10.963460
11
-35.793114
21
10.461670
0
LINE
8
Layer 1
10
-35.793114
20
10.461670
11
-35.937314
21
9.923160
0
LINE
8
Layer 1
10
-35.937314
20
9.923160
11
-36.081515
21
9.384670
0
LINE
8
Layer 1
10
-36.081515
20
9.384670
11
-36.191206
21
8.919590
0
LINE
8
Layer 1
10
-36.191206
20
8.919590
11
-36.300898
21
8.454510
0
LINE
8
Layer 1
10
-36.300898
20
8.454510
11
-36.387148
21
8.050640
0
LINE
8
Layer 1
10
-36.387148
20
8.050640
11
-36.473408
21
7.646770
0
LINE
8
Layer 1
10
-36.473408
20
7.646770
11
-36.561368
21
7.181690
0
LINE
8
Layer 1
10
-36.561368
20
7.181690
11
-36.649328
21
6.716630
0
LINE
8
Layer 1
10
-36.649328
20
6.716630
11
-36.720458
21
6.276030
0
LINE
8
Layer 1
10
-36.720458
20
6.276030
11
-36.791588
21
5.835440
0
LINE
8
Layer 1
10
-36.791588
20
5.835440
11
-36.853048
21
5.394850
0
LINE
8
Layer 1
10
-36.853048
20
5.394850
11
-36.914508
21
4.954250
0
LINE
8
Layer 1
10
-36.914508
20
4.954250
11
-36.976008
21
4.391270
0
LINE
8
Layer 1
10
-36.976008
20
4.391270
11
-37.037518
21
3.828290
0
LINE
8
Layer 1
10
-37.037518
20
3.828290
11
-37.051148
21
3.691120
0
LINE
8
Layer 1
10
-37.051148
20
3.691120
11
-37.064788
21
3.553940
0
LINE
8
Layer 1
10
-37.064788
20
3.553940
11
-36.751888
21
3.609340
0
LINE
8
Layer 1
10
-36.751888
20
3.609340
11
-36.438991
21
3.664840
0
LINE
8
Layer 1
10
-36.438991
20
3.664840
11
-27.584926
21
5.229240
0
LINE
8
Layer 1
10
37.338874
20
3.750670
11
37.322474
21
3.952620
0
LINE
8
Layer 1
10
37.322474
20
3.952620
11
37.273024
21
4.393200
0
LINE
8
Layer 1
10
37.273024
20
4.393200
11
37.223574
21
4.833800
0
LINE
8
Layer 1
10
37.223574
20
4.833800
11
37.162734
21
5.286640
0
LINE
8
Layer 1
10
37.162734
20
5.286640
11
37.101894
21
5.739460
0
LINE
8
Layer 1
10
37.101894
20
5.739460
11
37.004964
21
6.333550
0
LINE
8
Layer 1
10
37.004964
20
6.333550
11
36.908024
21
6.927620
0
LINE
8
Layer 1
10
36.908024
20
6.927620
11
36.808334
21
7.435020
0
LINE
8
Layer 1
10
36.808334
20
7.435020
11
36.708634
21
7.942430
0
LINE
8
Layer 1
10
36.708634
20
7.942430
11
36.598939
21
8.431980
0
LINE
8
Layer 1
10
36.598939
20
8.431980
11
36.489243
21
8.921520
0
LINE
8
Layer 1
10
36.489243
20
8.921520
11
36.353107
21
9.460030
0
LINE
8
Layer 1
10
36.353107
20
9.460030
11
36.216980
21
9.998530
0
LINE
8
Layer 1
10
36.216980
20
9.998530
11
36.034568
21
10.634950
0
LINE
8
Layer 1
10
36.034568
20
10.634950
11
35.852164
21
11.271350
0
LINE
8
Layer 1
10
35.852164
20
11.271350
11
35.587348
21
12.066880
0
LINE
8
Layer 1
10
35.587348
20
12.066880
11
35.322531
21
12.862380
0
LINE
8
Layer 1
10
35.322531
20
12.862380
11
35.113364
21
13.415710
0
LINE
8
Layer 1
10
35.113364
20
13.415710
11
34.904187
21
13.969040
0
LINE
8
Layer 1
10
34.904187
20
13.969040
11
34.742490
21
14.364760
0
LINE
8
Layer 1
10
34.742490
20
14.364760
11
34.580794
21
14.760490
0
LINE
8
Layer 1
10
34.580794
20
14.760490
11
34.419442
21
15.133210
0
LINE
8
Layer 1
10
34.419442
20
15.133210
11
34.258098
21
15.505960
0
LINE
8
Layer 1
10
34.258098
20
15.505960
11
34.026407
21
16.006850
0
LINE
8
Layer 1
10
34.026407
20
16.006850
11
33.794708
21
16.507750
0
LINE
8
Layer 1
10
33.794708
20
16.507750
11
33.504136
21
17.083850
0
LINE
8
Layer 1
10
33.504136
20
17.083850
11
33.213556
21
17.659960
0
LINE
8
Layer 1
10
33.213556
20
17.659960
11
33.001943
21
18.051600
0
LINE
8
Layer 1
10
33.001943
20
18.051600
11
32.790322
21
18.443230
0
LINE
8
Layer 1
10
32.790322
20
18.443230
11
32.471412
21
18.993970
0
LINE
8
Layer 1
10
32.471412
20
18.993970
11
32.152503
21
19.544720
0
LINE
8
Layer 1
10
32.152503
20
19.544720
11
31.871053
21
19.997040
0
LINE
8
Layer 1
10
31.871053
20
19.997040
11
31.589613
21
20.449370
0
LINE
8
Layer 1
10
31.589613
20
20.449370
11
31.289523
21
20.902700
0
LINE
8
Layer 1
10
31.289523
20
20.902700
11
30.989431
21
21.356050
0
LINE
8
Layer 1
10
30.989431
20
21.356050
11
30.652351
21
21.833350
0
LINE
8
Layer 1
10
30.652351
20
21.833350
11
30.315263
21
22.310660
0
LINE
8
Layer 1
10
30.315263
20
22.310660
11
29.973079
21
22.763500
0
LINE
8
Layer 1
10
29.973079
20
22.763500
11
29.630907
21
23.216330
0
LINE
8
Layer 1
10
29.630907
20
23.216330
11
29.258024
21
23.681390
0
LINE
8
Layer 1
10
29.258024
20
23.681390
11
28.885151
21
24.146470
0
LINE
8
Layer 1
10
28.885151
20
24.146470
11
28.502896
21
24.591530
0
LINE
8
Layer 1
10
28.502896
20
24.591530
11
28.120647
21
25.036630
0
LINE
8
Layer 1
10
28.120647
20
25.036630
11
27.735449
21
25.460510
0
LINE
8
Layer 1
10
27.735449
20
25.460510
11
27.350249
21
25.884400
0
LINE
8
Layer 1
10
27.350249
20
25.884400
11
26.749983
21
26.492920
0
LINE
8
Layer 1
10
26.749983
20
26.492920
11
26.149716
21
27.101420
0
LINE
8
Layer 1
10
26.149716
20
27.101420
11
25.684651
21
27.535260
0
LINE
8
Layer 1
10
25.684651
20
27.535260
11
25.219575
21
27.969110
0
LINE
8
Layer 1
10
25.219575
20
27.969110
11
24.987043
21
28.176650
0
LINE
8
Layer 1
10
24.987043
20
28.176650
11
24.754510
21
28.384170
0
LINE
8
Layer 1
10
24.754510
20
28.384170
11
24.387351
21
28.697970
0
LINE
8
Layer 1
10
24.387351
20
28.697970
11
24.020191
21
29.011780
0
LINE
8
Layer 1
10
24.020191
20
29.011780
11
23.530640
21
29.405050
0
LINE
8
Layer 1
10
23.530640
20
29.405050
11
23.041088
21
29.798320
0
LINE
8
Layer 1
10
23.041088
20
29.798320
11
22.502592
21
30.200430
0
LINE
8
Layer 1
10
22.502592
20
30.200430
11
21.964088
21
30.602550
0
LINE
8
Layer 1
10
21.964088
20
30.602550
11
21.491437
21
30.932240
0
LINE
8
Layer 1
10
21.491437
20
30.932240
11
21.018795
21
31.261940
0
LINE
8
Layer 1
10
21.018795
20
31.261940
11
20.499998
21
31.599150
0
LINE
8
Layer 1
10
20.499998
20
31.599150
11
19.981200
21
31.936380
0
LINE
8
Layer 1
10
19.981200
20
31.936380
11
19.369377
21
32.303580
0
LINE
8
Layer 1
10
19.369377
20
32.303580
11
18.757543
21
32.670780
0
LINE
8
Layer 1
10
18.757543
20
32.670780
11
18.243524
21
32.956840
0
LINE
8
Layer 1
10
18.243524
20
32.956840
11
17.729496
21
33.242890
0
LINE
8
Layer 1
10
17.729496
20
33.242890
11
16.836075
21
33.688790
0
LINE
8
Layer 1
10
16.836075
20
33.688790
11
15.942644
21
34.134690
0
LINE
8
Layer 1
10
15.942644
20
34.134690
11
15.342952
21
34.400770
0
LINE
8
Layer 1
10
15.342952
20
34.400770
11
14.743250
21
34.666860
0
LINE
8
Layer 1
10
14.743250
20
34.666860
11
14.168034
21
34.898640
0
LINE
8
Layer 1
10
14.168034
20
34.898640
11
13.592810
21
35.130440
0
LINE
8
Layer 1
10
13.592810
20
35.130440
11
13.299081
21
35.240790
0
LINE
8
Layer 1
10
13.299081
20
35.240790
11
13.005352
21
35.351140
0
LINE
8
Layer 1
10
13.005352
20
35.351140
11
12.454613
21
35.544610
0
LINE
8
Layer 1
10
12.454613
20
35.544610
11
11.903874
21
35.738070
0
LINE
8
Layer 1
10
11.903874
20
35.738070
11
11.279696
21
35.932440
0
LINE
8
Layer 1
10
11.279696
20
35.932440
11
10.655528
21
36.126800
0
LINE
8
Layer 1
10
10.655528
20
36.126800
11
10.165976
21
36.263200
0
LINE
8
Layer 1
10
10.165976
20
36.263200
11
9.676434
21
36.399590
0
LINE
8
Layer 1
10
9.676434
20
36.399590
11
9.088976
21
36.544470
0
LINE
8
Layer 1
10
9.088976
20
36.544470
11
8.501517
21
36.689340
0
LINE
8
Layer 1
10
8.501517
20
36.689340
11
8.048685
21
36.786640
0
LINE
8
Layer 1
10
8.048685
20
36.786640
11
7.595854
21
36.883940
0
LINE
8
Layer 1
10
7.595854
20
36.883940
11
7.143021
21
36.970340
0
LINE
8
Layer 1
10
7.143021
20
36.970340
11
6.690190
21
37.056740
0
LINE
8
Layer 1
10
6.690190
20
37.056740
11
6.249592
21
37.129840
0
LINE
8
Layer 1
10
6.249592
20
37.129840
11
5.809002
21
37.202940
0
LINE
8
Layer 1
10
5.809002
20
37.202940
11
5.282740
21
37.276440
0
LINE
8
Layer 1
10
5.282740
20
37.276440
11
4.756469
21
37.350040
0
LINE
8
Layer 1
10
4.756469
20
37.350040
11
4.173864
21
37.413940
0
LINE
8
Layer 1
10
4.173864
20
37.413940
11
3.591258
21
37.477640
0
LINE
8
Layer 1
10
3.591258
20
37.477640
11
3.571998
21
37.469640
0
LINE
8
Layer 1
10
3.571998
20
37.469640
11
3.552738
21
37.461640
0
LINE
8
Layer 1
10
3.552738
20
37.461640
11
5.182248
21
28.229630
0
LINE
8
Layer 1
10
5.182248
20
28.229630
11
6.811748
21
18.997620
0
LINE
8
Layer 1
10
6.811748
20
18.997620
11
6.827127
21
19.007620
0
LINE
8
Layer 1
10
6.827127
20
19.007620
11
6.842506
21
19.017620
0
LINE
8
Layer 1
10
6.842506
20
19.017620
11
8.244126
21
21.217860
0
LINE
8
Layer 1
10
8.244126
20
21.217860
11
9.645746
21
23.418120
0
LINE
8
Layer 1
10
9.645746
20
23.418120
11
9.767388
21
23.366820
0
LINE
8
Layer 1
10
9.767388
20
23.366820
11
9.889031
21
23.315420
0
LINE
8
Layer 1
10
9.889031
20
23.315420
11
9.876253
21
23.241720
0
LINE
8
Layer 1
10
9.876253
20
23.241720
11
9.863475
21
23.168020
0
LINE
8
Layer 1
10
9.863475
20
23.168020
11
8.809115
21
18.412090
0
LINE
8
Layer 1
10
8.809115
20
18.412090
11
7.754745
21
13.656150
0
LINE
8
Layer 1
10
7.754745
20
13.656150
11
7.820504
21
13.278230
0
LINE
8
Layer 1
10
7.820504
20
13.278230
11
7.886254
21
12.900300
0
LINE
8
Layer 1
10
7.886254
20
12.900300
11
7.903481
21
12.872400
0
LINE
8
Layer 1
10
7.903481
20
12.872400
11
7.920708
21
12.844400
0
LINE
8
Layer 1
10
7.920708
20
12.844400
11
15.846648
21
18.392670
0
LINE
8
Layer 1
10
15.846648
20
18.392670
11
23.772598
21
23.940930
0
LINE
8
Layer 1
10
23.772598
20
23.940930
11
23.867398
21
23.846230
0
LINE
8
Layer 1
10
23.867398
20
23.846230
11
23.962188
21
23.751530
0
LINE
8
Layer 1
10
23.962188
20
23.751530
11
18.414688
21
15.826610
0
LINE
8
Layer 1
10
18.414688
20
15.826610
11
12.867188
21
7.901700
0
LINE
8
Layer 1
10
12.867188
20
7.901700
11
12.880338
21
7.888600
0
LINE
8
Layer 1
10
12.880338
20
7.888600
11
12.893488
21
7.875500
0
LINE
8
Layer 1
10
12.893488
20
7.875500
11
13.285800
21
7.805200
0
LINE
8
Layer 1
10
13.285800
20
7.805200
11
13.678103
21
7.734900
0
LINE
8
Layer 1
10
13.678103
20
7.734900
11
18.484123
21
8.799880
0
LINE
8
Layer 1
10
18.484123
20
8.799880
11
23.290143
21
9.864870
0
LINE
8
Layer 1
10
23.290143
20
9.864870
11
23.313700
21
9.864730
0
LINE
8
Layer 1
10
23.313700
20
9.864730
11
23.337200
21
9.864730
0
LINE
8
Layer 1
10
23.337200
20
9.864730
11
23.387680
21
9.745250
0
LINE
8
Layer 1
10
23.387680
20
9.745250
11
23.438160
21
9.625760
0
LINE
8
Layer 1
10
23.438160
20
9.625760
11
21.331040
21
8.282720
0
LINE
8
Layer 1
10
21.331040
20
8.282720
11
19.223910
21
6.939680
0
LINE
8
Layer 1
10
19.223910
20
6.939680
11
19.113047
21
6.868480
0
LINE
8
Layer 1
10
19.113047
20
6.868480
11
19.002184
21
6.797280
0
LINE
8
Layer 1
10
19.002184
20
6.797280
11
28.168974
21
5.176300
0
LINE
8
Layer 1
10
28.168974
20
5.176300
11
37.335754
21
3.555320
0
LINE
8
Layer 1
10
37.335754
20
3.555320
11
37.345354
21
3.552320
0
LINE
8
Layer 1
10
37.345354
20
3.552320
11
37.354954
21
3.549320
0
LINE
8
Layer 1
10
37.354954
20
3.549320
11
37.338874
21
3.750670
0
LINE
8
Layer 1
10
20.266774
20
7.930930
11
21.898314
21
8.970480
0
LINE
8
Layer 1
10
21.898314
20
8.970480
11
21.892714
21
8.976480
0
LINE
8
Layer 1
10
21.892714
20
8.976480
11
21.887114
21
8.982480
0
LINE
8
Layer 1
10
21.887114
20
8.982480
11
19.710064
21
8.080510
0
LINE
8
Layer 1
10
19.710064
20
8.080510
11
17.533024
21
7.178520
0
LINE
8
Layer 1
10
17.533024
20
7.178520
11
17.435114
21
7.135520
0
LINE
8
Layer 1
10
17.435114
20
7.135520
11
17.337204
21
7.092520
0
LINE
8
Layer 1
10
17.337204
20
7.092520
11
17.912420
21
6.986960
0
LINE
8
Layer 1
10
17.912420
20
6.986960
11
18.487635
21
6.881370
0
LINE
8
Layer 1
10
18.487635
20
6.881370
11
18.561075
21
6.887370
0
LINE
8
Layer 1
10
18.561075
20
6.887370
11
18.634505
21
6.893370
0
LINE
8
Layer 1
10
18.634505
20
6.893370
11
20.266774
21
7.930930
0
LINE
8
Layer 1
10
-14.171426
20
7.614800
11
-14.188936
21
7.630600
0
LINE
8
Layer 1
10
-14.188936
20
7.630600
11
-17.807366
21
8.431240
0
LINE
8
Layer 1
10
-17.807366
20
8.431240
11
-21.425786
21
9.231880
0
LINE
8
Layer 1
10
-21.425786
20
9.231880
11
-21.435836
21
9.221680
0
LINE
8
Layer 1
10
-21.435836
20
9.221680
11
-21.445886
21
9.211480
0
LINE
8
Layer 1
10
-21.445886
20
9.211480
11
-19.237106
21
8.296610
0
LINE
8
Layer 1
10
-19.237106
20
8.296610
11
-17.028326
21
7.381730
0
LINE
8
Layer 1
10
-17.028326
20
7.381730
11
-16.780457
21
7.280620
0
LINE
8
Layer 1
10
-16.780457
20
7.280620
11
-16.532590
21
7.179520
0
LINE
8
Layer 1
10
-16.532590
20
7.179520
11
-15.343260
21
7.389100
0
LINE
8
Layer 1
10
-15.343260
20
7.389100
11
-14.153930
21
7.598690
0
LINE
8
Layer 1
10
-14.153930
20
7.598690
11
-14.171426
21
7.614800
0
LINE
8
Layer 1
10
17.650774
20
15.218330
11
22.751374
21
22.506470
0
LINE
8
Layer 1
10
22.751374
20
22.506470
11
22.770914
21
22.543170
0
LINE
8
Layer 1
10
22.770914
20
22.543170
11
22.790454
21
22.579870
0
LINE
8
Layer 1
10
22.790454
20
22.579870
11
15.799044
21
15.591570
0
LINE
8
Layer 1
10
15.799044
20
15.591570
11
8.807634
21
8.603270
0
LINE
8
Layer 1
10
8.807634
20
8.603270
11
8.834677
21
8.594270
0
LINE
8
Layer 1
10
8.834677
20
8.594270
11
8.861720
21
8.585270
0
LINE
8
Layer 1
10
8.861720
20
8.585270
11
10.688860
21
8.260190
0
LINE
8
Layer 1
10
10.688860
20
8.260190
11
12.515990
21
7.935110
0
LINE
8
Layer 1
10
12.515990
20
7.935110
11
12.533130
21
7.932110
0
LINE
8
Layer 1
10
12.533130
20
7.932110
11
12.550270
21
7.929110
0
LINE
8
Layer 1
10
12.550270
20
7.929110
11
17.650774
21
15.218330
0
LINE
8
Layer 1
10
-8.007726
20
10.612890
11
-7.689681
21
12.421790
0
LINE
8
Layer 1
10
-7.689681
20
12.421790
11
-7.677538
21
12.475590
0
LINE
8
Layer 1
10
-7.677538
20
12.475590
11
-7.665395
21
12.529290
0
LINE
8
Layer 1
10
-7.665395
20
12.529290
11
-14.953675
21
17.629990
0
LINE
8
Layer 1
10
-14.953675
20
17.629990
11
-22.241955
21
22.730690
0
LINE
8
Layer 1
10
-22.241955
20
22.730690
11
-22.278675
21
22.750290
0
LINE
8
Layer 1
10
-22.278675
20
22.750290
11
-22.315385
21
22.769890
0
LINE
8
Layer 1
10
-22.315385
20
22.769890
11
-15.328115
21
15.779500
0
LINE
8
Layer 1
10
-15.328115
20
15.779500
11
-8.340845
21
8.789110
0
LINE
8
Layer 1
10
-8.340845
20
8.789110
11
-8.333315
21
8.797110
0
LINE
8
Layer 1
10
-8.333315
20
8.797110
11
-8.325785
21
8.805110
0
LINE
8
Layer 1
10
-8.325785
20
8.805110
11
-8.007726
21
10.612890
0
LINE
8
Layer 1
10
8.451274
20
18.072340
11
9.251613
21
21.691270
0
LINE
8
Layer 1
10
9.251613
20
21.691270
11
9.241703
21
21.701270
0
LINE
8
Layer 1
10
9.241703
20
21.701270
11
9.231793
21
21.711270
0
LINE
8
Layer 1
10
9.231793
20
21.711270
11
8.224163
21
19.277770
0
LINE
8
Layer 1
10
8.224163
20
19.277770
11
7.216543
21
16.844270
0
LINE
8
Layer 1
10
7.216543
20
16.844270
11
7.215589
21
16.787070
0
LINE
8
Layer 1
10
7.215589
20
16.787070
11
7.214635
21
16.729870
0
LINE
8
Layer 1
10
7.214635
20
16.729870
11
7.417023
21
15.574060
0
LINE
8
Layer 1
10
7.417023
20
15.574060
11
7.619402
21
14.418250
0
LINE
8
Layer 1
10
7.619402
20
14.418250
11
7.635143
21
14.435850
0
LINE
8
Layer 1
10
7.635143
20
14.435850
11
7.650796
21
14.453450
0
LINE
8
Layer 1
10
7.650796
20
14.453450
11
8.451135
21
18.072380
0
LINE
8
Layer 1
10
8.451135
20
18.072380
11
8.451274
21
18.072340
0
LINE
8
Layer 1
10
-6.709726
20
17.952560
11
-6.607206
21
18.538890
0
LINE
8
Layer 1
10
-6.607206
20
18.538890
11
-6.628539
21
18.595090
0
LINE
8
Layer 1
10
-6.628539
20
18.595090
11
-6.649862
21
18.651290
0
LINE
8
Layer 1
10
-6.649862
20
18.651290
11
-7.677912
21
20.264120
0
LINE
8
Layer 1
10
-7.677912
20
20.264120
11
-8.705962
21
21.876960
0
LINE
8
Layer 1
10
-8.705962
20
21.876960
11
-8.711732
21
21.870960
0
LINE
8
Layer 1
10
-8.711732
20
21.870960
11
-8.717502
21
21.864960
0
LINE
8
Layer 1
10
-8.717502
20
21.864960
11
-7.815381
21
19.688110
0
LINE
8
Layer 1
10
-7.815381
20
19.688110
11
-6.913259
21
17.511270
0
LINE
8
Layer 1
10
-6.913259
20
17.511270
11
-6.870661
21
17.413370
0
LINE
8
Layer 1
10
-6.870661
20
17.413370
11
-6.828063
21
17.315470
0
LINE
8
Layer 1
10
-6.828063
20
17.315470
11
-6.820143
21
17.339870
0
LINE
8
Layer 1
10
-6.820143
20
17.339870
11
-6.812223
21
17.364270
0
LINE
8
Layer 1
10
-6.812223
20
17.364270
11
-6.709726
21
17.952560
 0 
ENDSEC
 0 
EOF